<svg width="31" height="24" viewBox="0 0 31 24" fill="none" xmlns="http://www.w3.org/2000/svg">
<path d="M11 12C14.0253 12 16.5 9.29994 16.5 6C16.5 2.70006 14.0253 0 11 0C7.97471 0 5.5 2.70006 5.5 6C5.5 9.29994 7.97471 12 11 12ZM11 15C7.35636 15 0 17.0251 0 21V24H22V21C22 17.0251 14.6436 15 11 15Z" fill="#34A853"/>
<mask id="path-2-inside-1_9_10" fill="white">
<path d="M30.3505 6L24.8763 10.8493L22.6495 8.87671L22 9.4726L24.8763 12L31 6.57534L30.3505 6Z"/>
</mask>
<path d="M30.3505 6L24.8763 10.8493L22.6495 8.87671L22 9.4726L24.8763 12L31 6.57534L30.3505 6Z" fill="#43A047"/>
<path d="M30.3505 6L31.6767 4.50292L30.3505 3.32813L29.0243 4.50292L30.3505 6ZM24.8763 10.8493L23.5501 12.3464L24.8763 13.5212L26.2025 12.3464L24.8763 10.8493ZM22.6495 8.87671L23.9757 7.37963L22.626 6.18403L21.2974 7.403L22.6495 8.87671ZM22 9.4726L20.6479 7.99889L19.0066 9.50474L20.6798 10.975L22 9.4726ZM24.8763 12L23.5561 13.5024L24.8816 14.6671L26.2025 13.4971L24.8763 12ZM31 6.57534L32.3262 8.07242L34.0162 6.57534L32.3262 5.07826L31 6.57534ZM29.0243 4.50292L23.5501 9.35224L26.2025 12.3464L31.6767 7.49708L29.0243 4.50292ZM26.2025 9.35224L23.9757 7.37963L21.3233 10.3738L23.5501 12.3464L26.2025 9.35224ZM21.2974 7.403L20.6479 7.99889L23.3521 10.9463L24.0016 10.3504L21.2974 7.403ZM20.6798 10.975L23.5561 13.5024L26.1964 10.4976L23.3202 7.97021L20.6798 10.975ZM26.2025 13.4971L32.3262 8.07242L29.6738 5.07826L23.5501 10.5029L26.2025 13.4971ZM32.3262 5.07826L31.6767 4.50292L29.0243 7.49708L29.6738 8.07242L32.3262 5.07826Z" fill="#13C124" mask="url(#path-2-inside-1_9_10)"/>
</svg>
