<?xml version="1.0" standalone="no"?>
<!DOCTYPE svg PUBLIC "-//W3C//DTD SVG 20010904//EN"
 "http://www.w3.org/TR/2001/REC-SVG-20010904/DTD/svg10.dtd">
<svg version="1.0" xmlns="http://www.w3.org/2000/svg"
 width="1545.000000pt" height="2000.000000pt" viewBox="0 0 1545.000000 2000.000000"
 preserveAspectRatio="xMidYMid meet">

<g transform="translate(0.000000,2000.000000) scale(0.100000,-0.100000)"
fill="#FFA500" stroke="none">
<path d="M0 14653 l0 -5348 296 -296 297 -297 -74 -34 c-41 -19 -174 -79 -296
-133 l-223 -100 0 -4222 0 -4223 7725 0 7725 0 0 655 0 655 -2152 2 -2152 3
-464 510 c-255 281 -568 624 -696 763 -127 140 -265 291 -306 337 -318 354
-309 345 -346 345 -43 0 -51 -17 -35 -71 7 -22 9 -48 6 -59 -8 -24 -56 -41
-79 -28 -26 15 -31 2 -7 -19 20 -17 29 -68 13 -75 -18 -8 -96 -119 -113 -160
-9 -24 -15 -27 -37 -21 -15 3 -31 12 -35 20 -4 7 -14 13 -21 13 -21 0 -69 57
-62 75 5 14 10 13 46 -5 36 -18 41 -19 47 -5 3 9 1 27 -5 39 -13 28 -5 40 33
53 26 8 30 15 33 52 2 32 8 44 22 48 11 3 38 31 62 62 23 31 55 71 70 89 15
18 28 40 28 50 0 19 -331 387 -378 421 -17 11 -40 21 -51 21 -23 0 -27 10 -10
27 15 15 19 11 -250 307 -161 177 -238 253 -245 246 -5 -5 -27 -10 -47 -10
-32 0 -41 -5 -59 -36 -26 -41 -21 -53 12 -30 44 31 52 14 13 -33 -15 -16 -38
-31 -53 -33 -19 -2 -27 -9 -28 -23 -1 -11 -2 -24 -4 -30 -1 -5 -3 -14 -4 -20
-3 -23 -40 -65 -57 -65 -14 0 -19 -7 -19 -25 0 -16 -6 -25 -15 -25 -8 0 -15
-9 -15 -20 0 -13 -10 -24 -25 -30 -15 -6 -23 -15 -19 -24 3 -8 1 -17 -5 -21
-18 -11 -48 4 -55 28 -6 21 -7 21 -36 -11 -32 -35 -34 -40 -21 -61 7 -11 15
-11 42 -2 18 6 34 10 35 8 8 -7 -59 -87 -72 -87 -15 0 -35 29 -81 116 l-27 51
33 42 c19 24 41 41 53 41 19 0 20 -1 4 -23 -30 -41 -35 -53 -27 -65 5 -8 16
-7 43 5 35 16 36 16 22 49 -12 28 -11 33 1 38 8 3 15 12 15 21 0 8 5 15 10 15
6 0 16 11 22 25 6 14 22 28 35 31 28 8 29 19 2 63 -16 27 -18 36 -7 42 18 12
32 11 45 -2 8 -8 17 -7 34 5 13 9 31 16 41 16 13 0 18 8 18 28 0 31 34 91 52
93 7 1 21 1 31 0 12 -2 17 5 17 23 0 13 2 31 5 38 4 9 -77 105 -212 252 -120
131 -242 266 -272 299 -120 136 -434 477 -440 477 -3 0 -19 -16 -34 -35 -15
-19 -37 -35 -47 -35 -22 0 -26 10 -9 27 24 24 -46 153 -82 153 -25 0 -24 8 2
37 l22 22 -38 43 c-21 24 -55 61 -76 83 -21 22 -89 96 -151 165 -71 79 -120
125 -133 126 -45 2 -47 3 -43 35 4 28 -6 43 -105 151 l-110 120 -42 -47 c-33
-38 -45 -46 -62 -41 -12 4 -25 16 -28 26 -7 23 4 88 16 96 5 3 7 10 3 15 -4 6
-11 6 -20 -2 -11 -9 -14 -7 -14 13 0 13 7 34 16 46 15 22 13 25 -51 95 -66 71
-267 294 -336 370 l-35 40 -25 -25 c-14 -14 -31 -27 -39 -30 -12 -4 -12 -9 -1
-36 7 -17 10 -43 7 -57 -6 -23 -11 -26 -49 -24 -24 2 -48 0 -53 -4 -6 -3 -26
-7 -46 -8 -30 -3 -34 -6 -34 -31 0 -15 3 -28 8 -28 15 0 8 -26 -12 -48 -22
-23 -69 -29 -87 -11 -6 6 -21 9 -34 7 -26 -3 -28 -19 -14 -99 5 -25 2 -39 -9
-48 -26 -21 -54 -3 -82 55 -24 50 -26 57 -13 82 15 27 97 112 109 112 4 0 15
17 24 38 11 24 31 45 53 58 27 14 43 33 60 72 24 56 60 93 106 113 15 6 27 14
27 18 0 8 -169 195 -180 199 -5 2 -17 -5 -28 -15 -66 -64 -102 -73 -102 -26 0
18 -9 28 -35 39 -19 8 -35 18 -35 22 0 11 29 52 58 84 l26 28 -20 22 c-105
119 -199 218 -206 218 -5 0 -6 -4 -3 -10 3 -5 3 -10 -2 -10 -15 0 -35 -60 -31
-91 3 -16 1 -29 -4 -29 -4 0 -10 -11 -14 -25 -3 -13 -15 -27 -25 -30 -10 -4
-33 -27 -51 -53 -17 -26 -51 -70 -75 -99 -23 -28 -43 -56 -43 -61 0 -6 -9 -14
-20 -17 -11 -3 -20 -11 -20 -16 0 -19 -41 -49 -68 -49 -21 0 -28 -5 -29 -21
-2 -25 -21 -49 -39 -49 -8 0 -14 -4 -14 -10 0 -21 -49 -22 -76 -1 -15 12 -23
21 -18 21 5 0 1 5 -10 11 -14 9 -20 8 -27 -2 -4 -7 -4 -16 0 -19 5 -3 11 -15
15 -27 4 -12 22 -31 41 -43 18 -11 36 -27 39 -36 4 -10 2 -13 -7 -8 -9 6 -9 4
-1 -7 6 -8 10 -22 8 -32 -6 -41 -13 -48 -43 -44 -34 6 -73 -12 -77 -34 -2 -18
-89 -113 -105 -115 -5 -1 -13 -2 -18 -3 -5 0 -15 -16 -22 -33 -7 -18 -21 -39
-31 -46 -10 -7 -18 -20 -18 -29 0 -13 -22 -45 -75 -106 -8 -9 -15 -19 -15 -22
0 -3 -20 -26 -45 -51 -25 -24 -57 -63 -71 -86 -15 -23 -74 -90 -133 -150 -58
-59 -120 -124 -138 -143 -20 -22 -42 -35 -57 -35 -24 0 -39 -13 -42 -35 0 -5
-2 -20 -2 -33 -1 -13 -6 -21 -10 -18 -11 7 -37 -11 -37 -26 0 -7 -10 -14 -22
-16 -30 -4 -44 27 -39 82 5 54 20 83 45 91 19 6 29 27 36 74 2 13 11 31 19 40
9 10 16 23 16 30 0 6 6 14 14 17 8 3 27 30 42 60 15 30 31 54 35 54 4 0 10 8
14 18 3 9 31 44 62 77 30 33 62 70 70 82 8 12 36 36 61 53 76 49 82 54 82 65
0 5 10 22 23 37 12 14 30 39 39 55 48 77 57 88 86 97 12 4 22 15 22 23 0 9 3
13 7 10 3 -4 12 2 20 13 8 11 20 20 27 20 10 0 12 14 9 59 -5 57 -4 59 22 68
19 6 37 27 61 73 19 36 34 59 34 53 0 -7 5 -13 11 -13 5 0 7 6 3 13 -5 9 -4 9
6 0 13 -12 32 0 95 62 16 16 36 30 43 32 6 2 19 4 27 6 30 6 67 46 70 74 4 41
99 177 155 220 27 21 56 52 66 69 10 18 36 41 61 53 36 17 42 24 34 39 -10 17
-186 213 -383 425 -60 64 -116 117 -123 117 -7 0 -21 -20 -31 -44 -10 -24 -21
-43 -25 -40 -3 2 -11 -8 -17 -21 -7 -14 -18 -25 -27 -25 -8 0 -15 -3 -15 -7
-1 -18 -41 -55 -68 -63 -33 -9 -77 7 -77 28 0 7 -5 16 -12 20 -15 9 -8 59 10
76 7 6 21 13 32 14 26 5 46 22 39 33 -3 5 0 9 5 9 6 0 11 7 11 15 0 9 19 40
41 70 l41 55 -33 37 c-18 21 -121 134 -228 252 -108 118 -211 232 -230 253
-34 40 -54 38 -43 -4 7 -30 -18 -66 -55 -79 -20 -6 -33 -17 -33 -28 0 -10 -18
-33 -40 -51 -22 -18 -40 -39 -40 -46 0 -8 -13 -23 -29 -35 -16 -11 -39 -43
-51 -70 -13 -27 -31 -51 -41 -54 -10 -4 -27 -17 -38 -31 -10 -13 -22 -24 -25
-24 -20 0 -86 -53 -86 -69 0 -25 -70 -98 -103 -106 -15 -4 -27 -13 -27 -19 0
-7 -15 -20 -34 -28 -29 -14 -34 -22 -39 -64 -3 -27 -10 -50 -16 -52 -6 -2 -9
-8 -5 -13 3 -5 0 -9 -5 -9 -6 0 -11 -9 -11 -20 0 -11 -5 -20 -10 -20 -6 0 -10
-3 -9 -7 3 -20 -15 -53 -32 -58 -11 -4 -16 -12 -12 -22 5 -13 1 -15 -21 -9
-20 5 -26 3 -21 -5 4 -6 -4 -3 -19 6 -14 9 -23 21 -20 26 3 5 2 15 -3 22 -7
11 -12 55 -13 116 0 12 11 36 25 53 14 16 25 35 25 42 0 17 69 88 79 82 5 -3
17 2 27 10 10 9 13 12 5 8 -7 -4 -3 7 10 25 12 17 27 31 31 31 5 0 7 4 4 8 -6
10 20 40 55 62 29 19 69 60 69 72 0 25 70 69 70 45 1 -7 7 2 15 20 7 18 23 38
34 45 12 7 21 21 21 30 0 10 5 18 10 18 6 0 10 5 10 11 0 7 8 19 19 28 10 9
26 32 36 51 17 33 89 110 104 110 3 0 22 18 41 40 29 34 39 39 64 34 16 -3 32
-7 36 -9 4 -2 7 3 7 11 0 14 -42 64 -189 228 l-44 49 -32 -23 c-17 -13 -37
-40 -43 -59 -7 -21 -34 -57 -65 -87 -38 -35 -54 -58 -54 -76 0 -23 -21 -57
-82 -130 -16 -19 -35 -29 -61 -31 -25 -3 -44 -12 -53 -26 -8 -11 -22 -21 -29
-21 -20 0 -66 -41 -59 -52 3 -4 -2 -8 -10 -8 -8 0 -26 -11 -40 -25 -13 -13
-37 -27 -53 -29 -35 -7 -50 -26 -58 -76 -9 -51 -23 -62 -98 -69 -5 -1 -5 -6
-1 -13 5 -7 3 -8 -6 -3 -7 4 -26 8 -41 7 -20 0 -30 5 -35 21 -10 30 -11 117
-2 111 3 -2 32 20 62 50 44 43 60 52 81 49 15 -3 25 -1 25 6 0 7 5 9 10 6 6
-3 10 0 10 8 0 7 9 23 20 35 11 12 20 26 20 31 0 6 21 26 47 46 26 20 53 48
60 63 8 15 29 38 48 52 18 14 42 41 52 60 11 21 28 36 41 38 12 2 20 7 17 12
-3 4 2 13 10 20 8 7 15 9 15 6 0 -4 16 9 35 30 19 20 35 40 35 45 0 4 10 19
23 31 13 13 22 29 19 36 -2 6 8 16 22 22 27 10 51 53 42 75 -14 37 -276 201
-284 177 -2 -6 -11 -8 -20 -5 -9 3 -14 2 -10 -2 5 -5 -1 -14 -12 -22 -21 -15
-29 -39 -8 -27 7 4 8 3 4 -5 -4 -6 -12 -9 -17 -6 -5 4 -9 1 -9 -5 0 -6 -9 -20
-20 -32 -11 -12 -19 -27 -19 -32 4 -32 -2 -66 -10 -61 -6 3 -8 -3 -6 -14 5
-26 -27 -87 -61 -116 -20 -17 -37 -23 -58 -21 -34 4 -58 -2 -51 -14 3 -4 -2
-13 -10 -20 -8 -7 -15 -19 -15 -27 0 -8 -4 -12 -9 -9 -5 3 -11 -2 -13 -12 -6
-20 -58 -29 -58 -10 0 22 -33 -34 -36 -60 -1 -14 -8 -28 -14 -32 -6 -4 -12
-11 -12 -16 0 -5 -4 -8 -9 -6 -5 1 -9 -2 -9 -8 0 -5 -6 -7 -14 -4 -8 3 -17 0
-21 -5 -3 -6 -11 -8 -17 -5 -7 5 -9 -2 -6 -19 6 -33 0 -42 -34 -51 -35 -8 -53
21 -43 70 5 27 11 34 28 34 18 0 23 6 23 25 0 14 -4 25 -9 25 -5 0 0 16 12 36
12 19 17 32 11 29 -5 -3 -10 -1 -10 4 0 6 5 11 11 11 5 0 7 5 3 11 -9 15 14
29 48 29 19 0 26 4 22 14 -3 7 1 20 8 27 8 8 17 22 21 32 4 10 11 16 16 13 5
-3 14 1 21 10 7 8 20 12 29 9 8 -3 12 -3 9 1 -4 3 1 14 11 23 26 22 71 107 63
117 -4 4 -2 4 5 0 6 -3 14 1 17 12 3 10 15 18 26 19 11 1 32 13 47 28 92 86
127 103 136 68 4 -17 5 -17 6 0 1 11 6 15 13 11 7 -4 8 -3 4 5 -26 42 -203 90
-368 98 -100 5 -119 4 -133 -11 -9 -9 -13 -16 -9 -16 4 0 -3 -9 -16 -20 -28
-25 -52 -26 -43 -3 4 11 3 14 -5 9 -8 -5 -10 -1 -5 10 13 34 -92 10 -240 -54
l-137 -60 0 5219 0 5219 -1245 0 -1245 0 0 -5347z m2793 -5046 c-2 -4 2 -10
10 -13 19 -7 10 -52 -14 -65 -11 -5 -19 -17 -19 -26 0 -15 -84 -103 -100 -103
-4 0 -21 14 -39 30 l-32 31 23 41 c13 22 35 51 50 63 15 13 25 25 22 27 -2 3
14 11 36 18 22 7 40 17 40 22 0 5 6 3 14 -4 8 -7 12 -16 9 -21z m-2409 -1240
c4 4 4 -1 0 -11 -5 -12 -4 -17 3 -13 5 4 15 -5 22 -19 6 -14 16 -22 21 -19 6
4 6 -4 0 -21 -10 -24 -9 -26 5 -14 9 7 15 9 13 4 -1 -5 4 -20 11 -33 7 -13 9
-21 3 -17 -5 3 -13 -1 -16 -10 -3 -8 -2 -13 3 -10 15 10 -1 -38 -17 -50 -8 -6
-12 -16 -8 -22 4 -7 -1 -10 -14 -7 -11 2 -20 0 -20 -5 0 -4 -7 -11 -16 -14
-11 -4 -15 -2 -11 7 3 8 -1 14 -9 14 -7 0 -10 -5 -7 -11 4 -6 -1 -5 -10 3 -9
7 -14 17 -11 22 3 5 -2 6 -10 3 -15 -6 -20 4 -17 32 1 7 -6 15 -15 18 -9 3
-14 13 -11 20 3 8 0 17 -7 19 -19 8 -8 84 17 115 8 11 12 11 18 0 7 -10 9 -10
9 0 0 6 12 13 28 13 19 1 21 3 8 6 -15 4 -16 7 -5 14 9 6 18 4 25 -6 6 -8 14
-12 18 -8z m4034 -418 c49 -10 82 -26 82 -39 0 -5 -14 -17 -31 -25 -17 -9 -29
-23 -28 -33 5 -56 -20 -85 -66 -75 -11 2 -31 5 -45 7 -14 1 -31 6 -38 10 -7 4
-12 2 -12 -4 0 -7 9 -14 20 -17 22 -6 39 -45 21 -51 -6 -2 -9 -8 -5 -13 3 -5
-4 -9 -15 -9 -12 0 -20 -3 -19 -7 1 -5 -6 -20 -15 -34 -12 -19 -24 -25 -37
-22 -11 3 -20 10 -20 15 0 5 -4 7 -9 4 -11 -7 -63 33 -56 44 3 4 -2 13 -10 20
-8 7 -15 23 -15 37 0 27 50 83 74 83 9 0 16 5 16 10 0 6 9 10 20 10 11 0 20 5
20 10 0 6 6 10 14 10 7 0 20 15 27 33 16 40 37 56 64 50 11 -2 39 -9 63 -14z
m-273 -343 c15 -23 18 -99 4 -90 -4 2 -10 -5 -14 -16 -3 -11 -11 -20 -16 -20
-6 0 -7 6 -3 13 6 9 5 9 -7 0 -11 -9 -19 -7 -38 8 -13 11 -21 22 -18 26 4 3 2
12 -4 19 -7 8 -7 14 1 19 5 3 10 16 10 27 0 12 3 19 6 15 4 -3 13 0 21 8 21
21 40 18 58 -9z m-2605 -46 c-11 -7 -12 -10 -2 -10 8 0 12 -6 9 -12 -2 -7 0
-21 5 -32 7 -13 7 -16 -1 -12 -6 4 -21 0 -33 -8 -15 -11 -18 -16 -8 -16 10 -1
9 -4 -5 -12 -28 -17 -47 -19 -63 -5 -12 9 -11 13 3 23 10 8 15 20 12 28 -4 9
-1 15 5 13 7 -1 12 5 13 13 0 10 9 14 24 12 20 -2 22 0 11 13 -11 13 -8 15 16
15 22 0 26 -3 14 -10z m2320 -220 c3 -1 13 -2 23 -1 26 3 21 -8 -10 -21 -44
-18 -49 -17 -51 7 -1 21 10 25 38 15z m-63 -21 c-11 -7 -23 -7 -28 -2 -5 5 3
9 19 11 24 1 25 0 9 -9z m5 -27 c-17 -5 -15 -22 3 -22 8 0 15 -4 15 -10 0 -17
-18 -11 -33 10 -8 11 -16 19 -18 17 -2 -1 2 3 10 10 8 7 19 9 24 6 8 -5 7 -8
-1 -11z m1691 -19 c8 -16 13 -38 11 -51 -3 -17 4 -27 25 -40 35 -20 45 -55 21
-77 -27 -24 -55 -18 -106 25 -40 33 -49 46 -51 77 -3 43 2 52 37 76 34 24 47
21 63 -10z m-2344 -33 c9 0 24 -52 25 -85 0 -11 5 -23 11 -27 6 -5 5 -8 -3 -8
-7 0 -10 -5 -7 -10 4 -6 3 -10 -2 -9 -21 4 -34 -2 -27 -13 4 -7 3 -8 -5 -4 -6
4 -9 12 -6 17 4 5 1 9 -4 9 -6 0 -11 7 -11 16 0 8 -4 12 -10 9 -5 -3 -10 0
-10 8 0 7 -11 20 -25 27 -28 15 -32 32 -10 50 8 7 15 18 15 25 0 19 32 23 48
8 7 -7 17 -13 21 -13z m598 -113 c0 -50 -10 -67 -40 -60 -18 4 -19 3 -7 -6 13
-9 12 -11 -4 -11 -14 0 -16 -3 -8 -13 7 -8 7 -18 2 -27 -5 -8 -6 -18 -4 -22 3
-4 0 -8 -7 -8 -7 0 -10 -2 -7 -5 3 -3 -12 -24 -34 -46 -22 -22 -38 -43 -34
-46 3 -3 -5 -14 -17 -24 -12 -10 -18 -18 -14 -19 4 0 -19 -26 -51 -58 -33 -32
-61 -63 -63 -68 -2 -5 -19 -18 -38 -28 -21 -12 -31 -14 -26 -6 6 10 4 12 -7 7
-37 -13 -73 71 -40 92 7 4 15 20 18 36 7 39 15 50 25 34 7 -11 9 -10 9 3 0 9
11 25 25 36 14 11 25 23 25 27 0 9 27 35 37 35 19 0 73 61 75 84 3 29 18 38
72 42 46 3 57 17 49 58 -4 20 -3 27 5 22 6 -3 13 -3 16 2 2 4 13 8 24 9 16 1
19 -5 19 -40z m1632 -16 c12 -8 12 -13 -3 -35 -9 -15 -13 -25 -9 -25 13 3 47
-13 63 -30 29 -30 0 -80 -46 -81 -38 0 -66 32 -71 81 -8 78 22 118 66 90z
m-3619 -11 c0 -5 -5 -10 -11 -10 -5 0 -7 5 -4 10 3 6 8 10 11 10 2 0 4 -4 4
-10z m3478 -74 c-1 -6 5 -31 12 -54 12 -40 36 -70 82 -104 9 -7 18 -29 20 -48
3 -32 1 -35 -26 -38 -16 -2 -47 4 -68 14 -44 20 -57 12 -59 -36 -2 -72 -6 -82
-44 -119 -22 -21 -53 -56 -70 -77 -16 -22 -48 -52 -72 -68 -35 -22 -45 -36
-55 -73 -8 -33 -19 -50 -39 -62 -16 -9 -33 -27 -39 -41 -19 -44 -55 -80 -81
-82 -53 -2 -67 3 -91 37 -21 30 -24 42 -18 81 6 41 16 55 92 128 47 44 106
113 131 151 25 39 71 93 103 120 33 27 63 56 68 65 5 8 21 24 34 35 68 56 70
58 64 113 -3 32 0 57 7 66 13 16 52 10 49 -8z m927 -272 c27 -11 38 -53 20
-80 -20 -31 -19 -41 5 -49 11 -3 20 -12 20 -20 0 -18 -57 -65 -80 -65 -11 0
-21 -10 -25 -22 -15 -54 -37 -88 -70 -108 -19 -11 -37 -29 -40 -39 -3 -10 -17
-23 -30 -29 -15 -7 -25 -20 -25 -33 0 -11 -13 -33 -28 -47 -16 -15 -38 -48
-50 -73 -18 -37 -30 -48 -61 -59 -44 -14 -50 -28 -56 -117 -2 -28 -8 -61 -14
-72 -10 -17 -14 -18 -42 -8 -28 11 -33 10 -54 -17 -12 -15 -25 -24 -28 -19 -9
14 -67 15 -69 1 0 -7 -2 -18 -2 -24 -1 -6 -7 -19 -15 -28 -8 -10 -12 -29 -8
-49 3 -18 0 -40 -7 -49 -17 -23 -63 -33 -81 -18 -7 6 -26 10 -42 8 -30 -3 -33
-17 -20 -93 6 -36 -7 -55 -38 -55 -16 0 -29 13 -48 49 -15 27 -27 54 -27 60 0
22 51 92 73 100 23 9 62 55 85 101 7 14 25 31 40 38 25 11 70 76 65 94 -2 4
17 8 40 8 53 0 59 5 45 35 -16 36 22 103 79 140 34 22 51 41 63 75 10 26 28
51 42 59 14 8 40 39 58 68 23 40 42 58 71 69 21 9 39 22 39 30 0 22 32 83 47
89 16 5 60 -21 55 -32 -2 -4 1 -9 7 -11 7 -2 9 7 5 27 -8 41 12 121 38 149 22
23 35 26 63 16z m-4061 -33 c-3 -9 -7 -25 -8 -36 -1 -11 -5 -26 -9 -32 -5 -7
-4 -13 0 -13 5 0 9 -11 9 -24 0 -16 -5 -22 -15 -19 -9 2 -31 -7 -49 -20 -33
-25 -78 -27 -65 -3 3 6 0 6 -8 -1 -20 -19 -24 -16 -24 20 0 21 11 47 28 70 15
21 23 37 16 37 -7 0 -5 8 6 20 14 16 28 20 57 17 21 -2 41 0 44 5 9 15 26 -3
18 -21z m3302 -304 c6 -16 -11 -64 -29 -80 -20 -19 -64 -20 -71 -2 -7 20 17
70 41 84 25 15 53 13 59 -2z m939 -87 c1 -46 20 -78 50 -86 29 -7 31 -20 8
-46 -25 -28 -69 -23 -90 10 -10 15 -25 32 -34 39 -9 7 -19 31 -23 55 -8 50 10
71 59 66 27 -3 30 -7 30 -38z m-4023 -35 c13 -5 15 -12 7 -32 -11 -30 -11 -36
0 -29 5 4 4 -5 -2 -18 -8 -16 -14 -21 -19 -13 -5 8 -8 7 -8 -4 0 -9 -10 -24
-22 -33 -13 -9 -17 -14 -9 -10 9 5 12 3 7 -5 -4 -6 -11 -9 -16 -6 -4 3 -13 -2
-20 -11 -11 -12 -15 -12 -21 -2 -7 10 -12 11 -28 1 -15 -9 -22 -10 -27 -1 -5
7 -3 8 6 3 10 -6 11 -2 6 20 -9 35 16 75 47 75 16 0 18 3 9 9 -11 7 -10 9 3
15 10 3 13 11 8 18 -17 28 -11 36 26 33 20 -1 44 -6 53 -10z m3949 -78 c21
-16 49 -71 49 -97 0 -27 -58 -99 -87 -111 -13 -5 -23 -17 -23 -28 0 -11 -8
-27 -17 -37 -10 -10 -23 -27 -28 -38 -7 -13 -22 -22 -42 -24 -62 -6 -93 78
-58 160 8 21 12 50 8 70 -3 22 -1 38 6 43 22 13 59 -5 73 -35 16 -37 35 -38
49 -3 8 21 7 28 -6 35 -21 12 -19 34 5 58 23 23 47 25 71 7z m-1095 -52 c3
-12 6 -50 8 -84 2 -57 0 -64 -28 -92 -16 -16 -37 -31 -47 -34 -9 -3 -20 -17
-23 -30 -4 -14 -10 -25 -14 -25 -4 0 -22 -9 -40 -20 -28 -17 -31 -23 -22 -40
10 -18 7 -22 -19 -31 -17 -6 -31 -15 -31 -20 0 -5 -13 -23 -30 -41 -16 -17
-30 -35 -30 -39 0 -24 -13 -39 -49 -58 -12 -7 -20 -15 -18 -18 3 -3 -5 -24
-18 -46 -20 -37 -44 -57 -79 -70 -6 -2 -9 -23 -8 -48 4 -62 -41 -124 -95 -131
-48 -7 -129 -45 -130 -61 -2 -18 -49 -127 -61 -139 -6 -6 -31 -10 -55 -10 -48
1 -67 -12 -70 -47 -1 -12 -5 -21 -10 -21 -4 0 -5 -5 -2 -10 9 -14 -20 -40 -44
-40 -23 0 -48 33 -52 70 -6 52 39 139 63 124 5 -3 14 7 20 23 7 15 38 52 68
83 51 52 90 97 109 128 4 7 21 16 37 21 20 5 32 16 38 37 11 39 49 114 57 114
4 0 28 20 53 46 28 27 51 42 59 38 6 -4 9 -4 5 1 -8 8 18 66 34 76 6 4 15 15
21 26 38 66 69 101 96 113 17 7 31 18 31 24 0 7 11 23 25 36 14 13 25 29 25
37 0 8 12 13 34 13 32 0 35 3 51 50 9 27 21 52 26 55 5 4 9 14 9 24 0 20 56
50 82 43 10 -2 21 -14 24 -27z m-647 18 c-4 -22 2 -33 14 -27 6 4 9 4 5 -1 -4
-4 -4 -13 1 -19 16 -21 19 -55 5 -67 -8 -6 -14 -20 -14 -30 0 -10 -5 -21 -10
-24 -16 -10 -57 20 -57 42 -1 29 19 97 35 116 16 18 23 21 21 10z m2141 -99
c0 -8 -4 -14 -9 -14 -5 0 -12 -7 -15 -16 -5 -14 -1 -15 27 -10 24 5 38 2 47
-9 27 -32 -19 -135 -60 -135 -30 0 -32 17 -5 38 37 29 32 43 -13 36 -50 -8
-65 9 -51 59 15 55 79 97 79 51z m-2230 -94 c0 -5 6 -10 14 -10 16 0 17 -76 1
-100 -5 -8 -16 -28 -25 -45 -9 -17 -23 -30 -35 -31 -45 -2 -47 -4 -42 -27 9
-35 -6 -51 -39 -40 -26 9 -28 12 -28 76 -1 37 2 67 5 67 4 0 9 9 12 19 2 11
22 28 43 39 22 11 48 29 58 41 20 22 36 27 36 11z m2120 -21 c0 -6 -5 -19 -10
-30 -16 -28 13 -79 45 -79 35 0 40 -18 14 -46 -33 -35 -64 -31 -91 11 -13 19
-31 37 -40 41 -21 6 -25 83 -6 102 15 15 88 16 88 1z m-3952 -79 c11 -21 10
-32 -9 -82 -12 -32 -25 -55 -30 -52 -5 3 -6 11 -3 17 4 7 3 8 -2 4 -5 -5 -9
-13 -9 -18 0 -5 -4 -8 -10 -7 -5 1 -9 8 -7 15 2 7 -2 13 -8 13 -6 0 -8 -4 -5
-10 3 -5 1 -10 -5 -10 -7 0 -9 -8 -5 -21 4 -12 3 -19 -2 -16 -5 3 -15 2 -22
-3 -20 -12 -54 20 -39 37 6 8 6 13 1 13 -6 0 -10 13 -9 28 1 23 5 28 23 26 12
-1 22 1 22 4 -3 22 2 42 10 38 5 -3 8 2 7 12 0 9 5 16 12 15 6 -2 12 2 12 8 0
5 4 8 9 4 5 -3 12 -1 15 4 11 16 41 6 54 -19z m4330 -6 c-5 -25 -35 -41 -49
-27 -18 18 -3 43 26 43 19 0 26 -5 23 -16z m-3218 -21 c0 -9 3 -14 6 -10 3 3
15 -4 26 -15 20 -20 33 -98 16 -98 -4 0 -8 -12 -8 -27 -1 -40 -31 -76 -67 -77
-16 0 -30 -7 -31 -13 -1 -7 -2 -24 -3 -38 -1 -13 -10 -32 -20 -41 -11 -9 -19
-22 -19 -29 0 -16 -41 -61 -62 -68 -16 -6 -58 -75 -58 -97 0 -6 -12 -29 -26
-51 -14 -23 -23 -43 -20 -46 8 -8 -53 -93 -67 -94 -7 -1 -24 -3 -39 -4 -55 -7
-116 74 -118 156 -1 64 5 92 34 153 14 30 26 59 26 64 0 12 35 43 52 46 26 4
133 60 141 73 4 7 14 13 21 13 17 0 48 35 39 43 -3 4 1 7 9 7 15 0 43 58 33
68 -7 7 34 82 46 82 6 0 7 5 4 10 -4 6 12 10 39 10 36 0 46 -4 46 -17z m3265
-67 c13 -25 29 -39 47 -43 l28 -5 -19 -27 c-35 -48 -61 -70 -76 -65 -11 5 -12
10 -3 24 15 23 -13 86 -42 95 -26 8 -25 30 2 49 30 21 39 17 63 -28z m-531 25
c3 -5 -1 -14 -9 -21 -19 -16 -10 -30 15 -23 27 7 50 -14 50 -47 0 -33 -39 -94
-63 -98 -22 -4 -23 30 -2 48 22 18 11 27 -30 22 -33 -4 -36 -7 -30 -29 4 -16
-1 -32 -15 -50 -26 -34 -27 -56 0 -48 34 11 41 -4 18 -36 -12 -16 -36 -33 -52
-37 -23 -6 -31 -14 -33 -33 -3 -41 -45 -99 -76 -105 -38 -9 -41 -18 -17 -56
24 -40 25 -52 4 -72 -12 -12 -20 -13 -35 -6 -13 7 -25 7 -38 0 -11 -5 -38 -10
-60 -10 -30 0 -43 -5 -51 -20 -12 -23 -6 -40 16 -40 21 0 17 -24 -11 -54 -28
-31 -42 -32 -90 -9 -33 16 -36 16 -52 0 -16 -16 -16 -20 2 -72 17 -51 17 -57
3 -72 -9 -9 -23 -13 -32 -10 -16 7 -75 94 -76 113 0 21 57 95 89 115 19 11 39
37 51 63 17 41 50 73 62 60 9 -8 32 27 54 80 11 28 30 56 42 62 12 6 31 22 42
36 22 29 40 30 68 5 30 -27 33 -20 12 29 l-20 46 35 30 c18 17 37 44 40 59 8
34 49 69 81 69 17 0 22 5 19 19 -2 10 6 37 17 60 15 31 26 41 43 41 13 0 26
-4 29 -9z m-522 -41 c15 0 1 -80 -18 -102 -19 -20 -41 -23 -63 -9 -12 8 -13
16 -2 51 6 22 16 38 20 35 5 -2 11 5 14 16 4 15 11 20 22 15 9 -3 21 -6 27 -6z
m922 -12 c-4 -7 -16 -24 -26 -39 -29 -39 -15 -62 33 -54 44 8 48 1 17 -32 -21
-22 -21 -23 -3 -63 20 -45 11 -67 -21 -56 -17 6 -95 147 -94 171 0 21 62 85
81 85 14 0 18 -4 13 -12z m-6259 -6 c12 -9 16 -44 4 -36 -5 3 -9 0 -9 -7 0 -8
-4 -8 -15 1 -12 10 -15 10 -15 -4 0 -9 4 -16 8 -16 4 0 8 -9 8 -20 0 -11 -4
-20 -8 -20 -4 0 -8 -6 -8 -14 0 -8 -10 -18 -21 -21 -17 -6 -19 -9 -8 -17 10
-7 8 -8 -9 -5 -13 3 -21 3 -18 0 3 -3 -4 -23 -15 -45 -17 -33 -24 -39 -42 -34
-21 5 -21 5 -3 -9 19 -14 19 -15 -7 -15 -15 0 -29 0 -32 0 -3 0 -4 2 -2 4 1 2
-7 13 -17 25 -16 18 -17 21 -3 21 10 0 13 6 10 18 -6 23 14 39 56 47 39 7 82
49 74 73 -4 14 -3 15 6 2 8 -12 11 -12 17 3 3 9 3 24 0 33 -3 8 -2 13 3 10 5
-3 11 3 14 14 5 21 15 25 32 12z m5040 -178 c9 -4 27 -29 41 -56 13 -27 34
-58 45 -69 30 -30 35 -71 10 -93 -34 -31 -64 -15 -90 48 -12 30 -33 66 -47 81
-40 43 -33 73 23 94 1 1 9 -2 18 -5z m1001 -62 c5 -4 30 -47 55 -95 l44 -88
-21 -18 c-12 -9 -25 -27 -28 -39 -10 -30 -50 -38 -82 -17 -33 21 -84 12 -84
-16 0 -11 9 -37 20 -59 27 -53 25 -69 -9 -81 -20 -7 -32 -19 -36 -38 -3 -15
-14 -41 -25 -59 -25 -40 -66 -43 -100 -7 l-23 24 -29 -21 c-24 -17 -28 -25
-23 -47 8 -36 34 -54 52 -39 11 9 17 8 24 -3 12 -20 12 -22 -11 -47 -14 -15
-33 -22 -56 -22 -31 0 -37 4 -50 35 -19 47 -18 78 7 119 16 28 27 36 50 36 22
0 29 5 29 19 0 11 4 22 9 25 5 3 12 21 15 41 7 36 37 65 68 65 13 0 18 8 18
29 0 16 7 34 16 42 8 7 22 25 30 41 8 16 23 28 34 28 36 0 81 102 63 143 -18
38 11 71 43 49z m504 -17 c0 -14 -29 -35 -49 -35 -12 0 -15 33 -4 43 13 13 53
7 53 -8z m-3126 -35 c20 6 46 -10 46 -29 0 -35 -20 -58 -46 -53 -17 3 -24 0
-24 -11 0 -32 -20 -71 -31 -60 -18 18 -49 3 -50 -23 -3 -45 -4 -48 -27 -60
-30 -15 -42 -29 -17 -21 19 7 19 7 1 -7 -11 -9 -16 -22 -12 -31 3 -9 2 -13 -4
-10 -5 3 -10 -4 -10 -17 0 -41 -3 -57 -11 -52 -4 2 -10 -2 -12 -8 -3 -8 -6 -6
-6 5 -1 9 -7 17 -15 17 -7 0 -19 7 -26 15 -7 9 -21 13 -31 10 -13 -5 -19 -1
-19 10 0 11 5 15 15 11 8 -3 15 -2 15 3 0 5 10 11 21 14 14 4 20 11 16 21 -3
8 0 17 8 20 8 3 11 13 8 25 -5 20 5 27 31 22 14 -3 26 22 20 44 -3 14 3 26 21
39 14 10 25 25 25 32 0 8 5 14 11 14 5 0 7 5 4 10 -3 6 0 10 8 10 8 0 20 7 27
15 7 8 16 12 21 9 5 -3 10 2 10 10 1 9 3 21 4 26 1 6 3 13 4 18 1 4 5 1 10 -6
4 -8 11 -13 15 -12z m1139 1 c15 -2 -4 -65 -25 -83 -11 -10 -31 -18 -44 -18
-30 0 -32 31 -5 76 18 30 27 33 74 25z m1651 -39 c-6 -9 -22 -17 -35 -17 -34
0 -40 42 -7 54 31 12 58 -11 42 -37z m377 -11 c17 -36 43 -56 59 -46 21 13 9
-18 -21 -56 -17 -21 -39 -39 -50 -39 -21 0 -25 10 -9 26 7 7 4 24 -7 52 -14
31 -24 42 -40 42 -29 0 -29 14 -2 41 27 27 51 21 70 -20z m-6914 -3 c-3 -8 -6
-5 -6 6 -1 11 2 17 5 13 3 -3 4 -12 1 -19z m6793 6 c0 -3 -9 -17 -19 -31 -27
-33 -17 -57 20 -49 34 6 35 4 13 -33 -16 -27 -15 -30 10 -75 29 -52 27 -66 -9
-66 -17 0 -29 9 -40 30 -9 17 -23 30 -33 30 -14 0 -17 12 -19 76 -2 68 0 78
22 100 22 22 55 33 55 18z m-6775 -23 c-3 -6 -11 -11 -16 -11 -5 0 -4 6 3 14
14 16 24 13 13 -3z m2509 13 c15 -6 15 -8 -1 -21 -10 -8 -12 -12 -5 -8 8 4 12
-2 12 -19 0 -25 -1 -25 -18 -8 -11 9 -17 20 -15 25 2 4 -1 7 -6 7 -6 0 -11 5
-11 11 0 5 5 7 10 4 6 -3 10 -1 10 4 0 13 3 13 24 5z m2780 -10 c21 -8 20 -33
-1 -56 -14 -16 -15 -24 -3 -73 13 -53 12 -56 -13 -93 -15 -21 -27 -43 -27 -49
0 -16 -62 -81 -80 -83 -35 -5 -49 2 -74 40 -34 51 -33 71 4 98 17 13 30 29 30
37 0 8 9 19 20 25 11 6 20 16 20 23 0 20 41 90 67 115 26 24 32 25 57 16z
m1341 -134 c3 -5 8 -31 11 -57 11 -97 36 -139 97 -162 29 -11 36 -38 12 -47
-40 -16 -116 34 -139 90 -17 41 -28 129 -20 161 6 25 28 33 39 15z m-2010 -30
c-3 -5 0 -10 8 -10 22 0 57 -48 57 -79 0 -61 -39 -120 -93 -140 -21 -8 -30 -7
-42 6 -11 11 -13 18 -6 23 8 4 7 12 -3 25 -8 11 -12 35 -9 64 7 80 11 88 50
104 46 19 46 19 38 7z m1943 -117 c18 -27 82 -148 82 -156 0 -4 -23 -31 -66
-80 -11 -13 -23 -17 -41 -12 -22 5 -24 3 -18 -12 24 -58 -15 -72 -57 -22 -23
29 -28 31 -28 14 0 -12 9 -39 20 -60 27 -54 20 -69 -29 -61 -37 6 -41 4 -61
-30 -27 -43 -22 -51 19 -29 37 18 38 14 10 -31 -17 -27 -27 -34 -53 -34 -47 0
-71 31 -70 86 1 62 20 92 64 104 31 8 37 14 33 33 -7 33 50 107 82 107 14 0
27 6 29 13 33 106 37 124 27 148 -7 19 -6 30 2 38 18 18 34 13 55 -16z m-2095
-28 c4 3 5 2 3 -1 -3 -3 4 -15 15 -27 17 -19 24 -38 20 -60 -1 -5 3 -6 9 -2 5
3 10 3 11 -2 7 -83 8 -79 -32 -104 -31 -20 -40 -33 -50 -72 -6 -27 -20 -54
-30 -60 -11 -7 -19 -16 -19 -22 0 -6 -20 -30 -45 -53 -25 -24 -43 -46 -41 -51
3 -4 -6 -13 -19 -19 -14 -7 -25 -16 -25 -22 0 -6 -4 -9 -8 -6 -4 2 -14 1 -22
-4 -22 -13 -69 16 -76 48 -3 15 -7 33 -10 40 -2 7 5 17 15 23 15 10 16 19 10
53 -15 74 -12 84 32 112 26 16 51 24 65 21 19 -3 26 1 30 19 3 12 19 32 35 45
24 18 29 29 29 64 0 35 6 48 32 74 28 28 33 29 48 16 9 -8 20 -13 23 -10z
m-1031 -34 c-8 -23 -8 -31 1 -31 7 0 0 -11 -15 -24 -15 -13 -24 -27 -20 -32 4
-4 0 -5 -8 -2 -9 3 -25 -1 -35 -8 -16 -12 -18 -18 -7 -34 9 -15 9 -20 0 -20
-6 0 -8 -3 -5 -6 3 -4 2 -15 -4 -26 -9 -16 -13 -17 -27 -6 -13 11 -14 11 -8 0
7 -11 4 -12 -13 -2 -26 13 -44 55 -36 81 4 10 22 26 41 35 22 11 32 20 26 26
-7 7 -3 17 10 30 11 11 22 17 25 15 3 -3 19 8 36 24 37 35 55 26 39 -20z
m4062 -67 c9 -3 16 -11 16 -18 0 -6 9 -28 20 -49 11 -21 18 -42 15 -47 -10
-16 -41 1 -54 31 -13 29 -36 47 -47 36 -4 -4 17 -71 41 -130 6 -15 4 -18 -15
-15 -17 2 -33 24 -66 87 -24 46 -41 87 -38 92 8 13 42 11 47 -3 3 -10 11 -9
33 4 34 21 29 19 48 12z m-2526 -19 c4 -4 6 -37 5 -73 -1 -37 3 -69 8 -72 4
-3 -9 -25 -31 -48 -43 -46 -46 -53 -29 -81 10 -14 7 -27 -10 -62 -35 -68 -47
-81 -85 -84 -57 -5 -71 -13 -97 -55 -13 -22 -32 -42 -41 -45 -10 -4 -18 -13
-18 -20 0 -8 -11 -22 -25 -31 -13 -9 -27 -23 -30 -32 -3 -10 -19 -25 -35 -34
-17 -10 -29 -21 -28 -25 1 -4 -6 -27 -16 -50 -33 -79 -81 -62 -140 50 l-41 78
24 19 c12 11 27 18 31 15 11 -7 51 35 84 90 16 26 41 52 55 59 43 19 81 48 81
62 0 21 22 64 33 64 18 0 56 50 78 100 12 28 27 50 33 50 7 0 30 21 51 46 77
89 82 93 109 90 15 -2 30 -7 34 -11z m172 -66 c0 -20 -47 -57 -61 -48 -11 7
-10 9 5 9 15 0 16 3 7 14 -10 11 -8 16 8 21 12 3 21 11 21 16 0 6 5 7 10 4 6
-3 10 -11 10 -16z m769 -18 c8 -5 11 -16 8 -25 -5 -12 0 -16 16 -16 44 0 57
-23 43 -75 -9 -37 -44 -75 -68 -75 -22 0 -23 9 -2 38 14 21 14 22 -10 22 -36
0 -69 35 -60 63 8 26 43 77 52 77 4 0 13 -4 21 -9z m1457 -46 c-17 -26 -14
-57 8 -87 10 -14 19 -16 44 -9 25 8 30 6 25 -5 -3 -8 -9 -14 -14 -14 -5 0 -9
-7 -9 -15 0 -10 -11 -15 -35 -15 -32 0 -40 8 -36 33 1 4 -12 15 -28 25 -24 13
-29 22 -24 41 3 14 1 26 -7 31 -21 13 0 32 32 28 16 -3 31 -1 34 4 3 4 10 8
16 8 6 0 3 -11 -6 -25z m-1959 -38 c-5 -35 -23 -76 -35 -78 -64 -10 -65 -10
-59 28 9 54 32 83 68 83 29 0 30 -2 26 -33z m358 -22 c5 -11 21 -32 35 -47 44
-47 80 -95 80 -106 0 -17 -60 -61 -75 -56 -8 4 -15 17 -15 31 0 15 -12 37 -31
54 -26 24 -30 35 -25 59 3 17 1 30 -4 30 -12 0 -23 37 -15 50 10 16 38 8 50
-15z m-4017 -72 c14 -12 14 -13 -4 -13 -22 0 -46 13 -46 25 0 14 27 25 31 12
2 -7 10 -18 19 -24z m5551 3 c19 -23 31 -76 18 -77 -8 0 -8 -2 1 -6 16 -6 6
-23 -15 -23 -10 0 -13 6 -9 16 10 26 -24 66 -51 61 -32 -6 -38 8 -11 27 28 20
52 20 67 2z m-1589 -38 c0 -21 42 -99 59 -110 16 -10 17 -16 9 -42 -6 -17 -16
-35 -22 -41 -6 -5 -19 -22 -29 -37 -24 -38 -68 -38 -96 -2 -24 31 -26 73 -7
129 8 22 12 54 9 71 -7 44 13 65 49 52 16 -6 28 -14 28 -20z m1531 -23 c2 -19
3 -25 13 -53 8 -23 13 -23 66 -4 13 5 13 4 0 -14 -8 -10 -19 -22 -24 -26 -6
-4 -5 -17 2 -33 18 -40 15 -55 -13 -55 -19 0 -25 -5 -26 -22 -2 -39 -3 -42
-28 -75 -18 -24 -33 -33 -53 -33 -15 0 -28 4 -28 9 0 5 -3 17 -7 27 -4 11 -3
15 5 10 6 -3 14 -2 17 4 4 6 3 10 -2 9 -22 -4 -32 3 -42 29 -7 15 -18 38 -26
52 -13 23 -13 26 6 34 13 6 23 6 27 0 9 -14 45 -27 37 -14 -3 6 1 10 9 10 21
0 20 -6 -5 -41 -18 -26 -19 -28 -2 -22 10 4 24 15 31 25 8 10 26 18 45 19 18
0 26 3 20 6 -7 2 -13 12 -13 22 0 9 -5 22 -11 28 -6 6 -21 33 -34 59 -17 36
-20 51 -12 56 20 13 47 9 48 -7z m-6727 -18 c8 -12 7 -23 -2 -38 -11 -17 -11
-20 0 -13 10 6 10 4 -1 -9 -7 -9 -18 -14 -25 -10 -6 4 -4 -2 4 -12 12 -15 12
-17 1 -10 -11 6 -13 4 -8 -8 3 -10 2 -17 -3 -17 -6 0 -10 -9 -10 -19 0 -11 -5
-23 -12 -27 -7 -4 -8 -3 -4 4 10 17 -3 15 -20 -3 -9 -8 -12 -20 -8 -26 4 -8 3
-9 -4 -5 -12 7 -16 -5 -13 -33 2 -7 -2 -10 -8 -6 -7 3 -11 -2 -11 -14 0 -24
-36 -51 -68 -51 -25 0 -52 21 -52 40 0 6 -5 8 -12 4 -10 -6 -10 -4 0 8 7 9 15
26 17 39 3 12 8 25 13 28 5 3 8 14 6 24 -1 9 4 18 12 19 8 0 20 1 27 2 6 1 15
6 19 11 5 6 8 5 8 -2 0 -7 5 -13 10 -13 6 0 9 6 8 13 -2 6 3 11 10 10 6 -2 13
5 13 15 3 44 17 82 30 82 6 0 7 4 4 10 -3 6 1 7 10 4 11 -5 14 -2 9 10 -5 14
-1 16 22 13 15 -2 33 -11 38 -20z m5716 13 c12 -7 12 -12 -4 -29 -19 -21 -19
-21 16 -21 20 0 40 -6 46 -12 27 -34 -20 -128 -64 -128 -31 0 -30 10 1 40 31
29 24 40 -21 33 -59 -10 -74 42 -28 96 28 34 32 35 54 21z m953 -41 c-8 -8 -6
-19 5 -40 13 -22 14 -31 5 -40 -10 -10 -16 -9 -31 4 -19 17 -47 24 -38 9 2 -4
-5 -8 -18 -8 -21 0 -19 4 18 43 22 24 47 43 55 43 11 0 12 -3 4 -11z m-2003
-24 c9 -11 11 -34 7 -75 -4 -36 -3 -60 3 -60 5 0 6 -8 3 -17 -10 -25 -36 -53
-49 -53 -6 0 -18 -7 -25 -16 -11 -14 -11 -18 4 -29 21 -15 22 -68 2 -85 -8 -7
-15 -21 -15 -31 0 -26 -58 -61 -90 -54 -17 4 -31 0 -42 -12 -9 -10 -34 -38
-56 -63 -23 -25 -52 -58 -66 -73 -15 -15 -26 -31 -26 -34 0 -3 -16 -21 -35
-39 -19 -18 -41 -50 -48 -71 -7 -23 -19 -39 -31 -41 -24 -5 -66 17 -66 35 0 7
-8 21 -17 31 -20 20 -53 86 -53 106 0 14 41 36 69 36 12 0 26 14 38 38 35 70
55 91 109 119 41 21 54 33 53 48 -3 38 1 44 45 74 34 23 46 40 56 75 13 46 25
62 63 81 12 6 31 26 43 45 49 78 94 101 124 65z m1840 -115 c20 -38 -13 -55
-41 -22 -8 10 -14 23 -11 30 6 19 40 14 52 -8z m-853 -72 c15 -12 6 -36 -19
-49 -38 -20 -63 24 -32 55 15 15 24 14 51 -6z m-138 3 c7 -5 10 -14 6 -20 -13
-21 4 -60 33 -73 36 -18 34 -40 -5 -57 -21 -9 -33 -23 -37 -43 -5 -27 -30 -47
-43 -34 -3 3 -6 24 -6 46 0 36 -3 40 -34 51 -18 6 -33 15 -33 20 0 12 37 49
49 49 5 0 13 10 17 23 7 24 23 47 33 47 3 0 12 -4 20 -9z m-4045 -53 c2 -30
-24 -51 -45 -37 -8 5 -10 9 -5 9 6 0 1 7 -10 16 -10 8 -12 12 -4 8 12 -6 13
-5 3 7 -18 22 2 39 35 30 18 -5 26 -14 26 -33z m-1204 -19 c0 -10 -7 -22 -16
-27 -9 -5 -15 -13 -15 -18 1 -5 -6 -9 -14 -9 -8 0 -15 3 -15 8 0 4 0 16 0 28
0 12 8 23 20 26 11 3 17 9 14 14 -3 5 2 6 10 3 9 -3 16 -14 16 -25z m6210 -18
c0 -6 -4 -13 -10 -16 -21 -13 -10 -32 16 -27 25 5 24 3 -18 -52 -23 -31 -48
-56 -55 -56 -20 0 -94 -103 -82 -115 8 -7 16 -3 26 13 14 21 53 31 53 14 0
-17 -60 -72 -79 -72 -23 0 -36 -16 -21 -25 17 -11 11 -25 -15 -35 -16 -6 -23
-15 -19 -24 3 -8 -3 -19 -15 -26 -12 -6 -21 -17 -21 -26 0 -8 -11 -19 -25 -24
-16 -6 -23 -15 -19 -24 3 -8 -3 -23 -13 -34 -10 -11 -26 -32 -37 -47 -14 -21
-24 -26 -48 -23 -23 4 -28 2 -22 -11 19 -47 18 -53 -12 -49 -18 2 -33 12 -41
27 -6 13 -18 28 -26 33 -12 6 -14 2 -7 -25 4 -18 15 -45 25 -60 21 -33 14 -57
-18 -57 -19 0 -29 12 -51 58 l-28 58 27 40 c14 21 33 43 41 47 17 10 54 0 54
-14 0 -5 7 -9 15 -9 8 0 15 8 15 18 0 9 9 32 21 51 23 38 20 48 -10 30 -28
-18 -38 -3 -19 29 12 20 26 28 52 30 34 3 35 4 23 29 -9 21 -8 27 6 38 9 7 17
15 17 19 0 22 55 76 76 76 21 0 24 5 24 34 0 23 8 42 26 60 29 29 45 32 73 15
15 -10 22 -8 41 11 l22 22 -31 -7 c-38 -8 -38 -2 -5 42 47 62 94 94 94 64z
m-1482 -28 c4 -26 -25 -73 -44 -73 -8 0 -14 -4 -14 -9 0 -5 -9 -7 -20 -4 -22
6 -25 28 -9 70 13 34 27 44 59 41 17 -2 26 -10 28 -25z m-2245 0 c-4 -11 -3
-14 5 -9 8 5 12 -1 13 -16 0 -13 3 -35 5 -50 3 -18 0 -28 -7 -28 -7 0 -10 -3
-6 -6 10 -10 -18 -32 -49 -39 -22 -5 -25 -4 -14 4 11 8 12 11 2 11 -7 0 -10 5
-7 10 3 6 2 10 -4 10 -5 0 -12 -4 -16 -10 -3 -5 -11 -7 -18 -4 -7 2 -13 -4
-14 -16 -1 -12 2 -18 9 -14 7 4 8 2 4 -5 -4 -6 -12 -9 -17 -6 -5 4 -9 -1 -9
-10 0 -13 -4 -14 -20 -5 -18 10 -19 13 -6 25 8 8 19 15 25 15 6 0 10 6 9 13
-2 6 5 11 15 11 16 -2 24 22 17 51 -11 45 -7 54 23 61 18 4 35 8 39 8 3 1 10
4 14 9 12 11 14 8 7 -10z m2630 -32 c4 0 4 -18 1 -39 -5 -34 -3 -42 21 -60 15
-12 34 -22 41 -22 19 0 18 -20 -3 -42 -27 -30 -64 -22 -107 23 -29 32 -40 52
-44 85 -4 39 -2 45 19 52 20 8 40 9 72 3z m1452 -49 c6 -4 11 -16 10 -27 0
-30 -59 -29 -63 2 -3 19 4 25 38 32 3 0 10 -3 15 -7z m-6127 -99 c0 -30 -2
-34 -8 -18 -5 11 -9 14 -9 8 -1 -21 -21 -15 -30 10 -7 19 -5 23 18 28 14 4 26
7 27 8 0 0 1 -16 2 -36z m5983 3 c60 -25 90 -78 103 -181 7 -54 -2 -85 -25
-85 -11 0 -19 3 -20 8 -1 4 -3 25 -5 47 -8 94 -28 135 -84 170 -43 27 -50 41
-22 48 9 3 18 5 18 6 1 0 17 -5 35 -13z m197 -19 c3 -24 0 -27 -27 -27 -26 0
-31 4 -31 24 0 44 53 47 58 3z m-1612 9 c3 -8 -1 -25 -9 -38 -10 -16 -12 -30
-6 -45 8 -23 17 -27 55 -24 27 3 28 -27 1 -56 -47 -52 -117 -10 -117 71 0 65
59 136 76 92z m-2655 -23 c12 -16 12 -17 -2 -6 -9 7 -20 9 -24 5 -5 -4 -5 -1
-1 6 9 16 11 15 27 -5z m2154 -79 c0 -33 4 -65 9 -72 9 -14 -15 -46 -46 -63
-43 -23 -108 50 -93 103 25 92 67 131 110 103 16 -10 20 -24 20 -71z m-2155
48 c19 -17 19 -18 -5 -20 -19 -1 -25 3 -25 18 0 25 5 25 30 2z m4034 -112 c-1
-40 2 -50 15 -50 9 0 24 -7 34 -14 14 -11 15 -15 4 -25 -8 -6 -25 -12 -39 -13
-23 -2 -25 -5 -18 -29 9 -30 -4 -49 -32 -49 -15 0 -17 7 -14 45 4 49 -10 65
-55 65 -21 0 -22 1 -4 20 10 11 26 20 37 20 17 0 23 16 19 48 -2 10 28 29 50
31 3 1 5 -21 3 -49z m-2083 30 c11 -6 33 -34 50 -63 17 -29 39 -66 50 -84 l20
-31 -24 -27 c-32 -37 -56 -27 -84 33 -12 27 -36 66 -53 87 -33 41 -37 58 -17
80 15 17 32 19 58 5z m-1622 -77 c-3 -15 23 -73 32 -73 15 0 10 -47 -5 -53
-20 -8 -39 18 -31 42 3 10 1 22 -5 26 -11 7 -14 48 -3 58 8 9 13 9 12 0z
m2076 -61 c6 -4 11 -18 13 -32 6 -53 12 -67 37 -78 28 -13 32 -34 10 -52 -21
-18 -45 -4 -89 48 -41 50 -46 84 -14 106 25 18 29 19 43 8z m1515 3 c0 -3 -7
-16 -15 -29 -14 -21 -14 -27 1 -60 19 -40 21 -40 58 -26 14 5 26 6 26 2 0 -17
-57 -62 -78 -62 -20 0 -49 35 -44 53 1 4 -11 10 -28 13 -32 7 -36 14 -19 31 8
8 8 17 -1 33 -7 12 -8 26 -3 30 12 12 103 25 103 15z m-5024 -70 c-2 -5 -8 -9
-14 -8 -11 3 -41 -27 -41 -42 0 -5 -5 -11 -13 -13 -9 -2 -8 0 2 7 13 9 13 11
1 11 -11 0 -11 3 3 13 9 7 18 23 19 35 1 13 6 21 14 18 7 -3 10 1 7 12 -5 14
-3 13 10 -3 9 -10 15 -24 12 -30z m5418 13 c9 -18 29 -57 45 -87 30 -54 31
-81 4 -81 -8 0 -12 -4 -9 -8 8 -13 -21 -49 -43 -55 -11 -2 -32 2 -47 9 -19 10
-42 12 -77 8 l-50 -7 19 26 c12 17 29 26 45 27 23 0 27 5 33 39 3 22 13 47 22
55 13 13 14 22 5 48 -16 46 -15 49 30 57 4 0 14 -14 23 -31z m-2449 -5 c10
-14 33 -41 51 -60 20 -19 34 -44 34 -58 0 -27 -24 -55 -47 -55 -20 0 -53 29
-53 45 0 7 -7 19 -17 26 -9 8 -25 33 -35 57 -15 34 -17 46 -8 58 20 23 56 17
75 -13z m-3552 -18 c-3 -9 -8 -14 -10 -11 -3 3 -2 9 2 15 9 16 15 13 8 -4z
m6147 -20 c0 -29 -46 -47 -61 -24 -12 19 -6 32 21 46 30 15 40 9 40 -22z
m-4235 -16 c-8 -12 -35 -11 -35 2 0 5 5 7 10 4 6 -3 10 -1 10 5 0 6 5 8 10 5
6 -4 8 -11 5 -16z m-1915 7 c0 -2 -7 -9 -15 -16 -13 -11 -14 -10 -9 4 5 14 24
23 24 12z m4944 -69 c9 -80 40 -137 89 -160 42 -21 48 -44 13 -53 -28 -7 -71
14 -105 49 -39 42 -68 208 -38 220 29 12 35 5 41 -56z m2153 23 c3 -18 1 -19
-17 -8 -20 13 -25 29 -13 42 9 9 26 -10 30 -34z m-6627 3 c0 5 7 2 15 -7 16
-16 20 -30 6 -22 -5 4 -7 -2 -4 -12 3 -13 -4 -22 -22 -30 -14 -7 -23 -17 -20
-22 3 -6 1 -10 -5 -10 -6 0 -9 -4 -6 -9 8 -13 -21 -34 -35 -25 -8 4 -9 3 -5
-4 4 -7 2 -12 -3 -12 -6 0 -10 -3 -9 -7 1 -5 -2 -18 -6 -31 -6 -18 -11 -21
-21 -12 -10 9 -14 6 -17 -11 -5 -34 -46 -36 -58 -3 -12 31 -6 44 21 44 11 0
18 4 15 9 -3 4 8 21 25 36 25 21 28 29 18 36 -13 8 -6 13 13 10 4 0 5 6 1 15
-5 13 -2 15 17 9 15 -5 20 -4 16 4 -4 6 -2 11 3 11 6 0 11 6 11 14 0 8 7 22
16 31 14 13 19 14 25 3 5 -7 9 -9 9 -5z m2966 4 c11 -12 34 -86 34 -106 0 -15
5 -32 11 -38 7 -7 9 -25 5 -47 -8 -41 -28 -42 -67 -4 -57 54 -76 119 -53 177
12 29 17 32 41 26 16 -4 29 -7 29 -8z m634 -127 c0 -19 -19 -40 -37 -40 -7 0
-20 15 -29 33 -9 17 -25 37 -34 44 -18 13 -34 79 -23 96 7 12 123 -113 123
-133z m1444 131 c3 -4 -6 -13 -19 -19 -42 -19 -32 -112 12 -112 13 0 21 4 18
10 -3 6 3 10 14 10 12 0 21 -2 21 -4 0 -32 -58 -71 -90 -61 -51 16 -65 131
-19 166 26 20 54 24 63 10z m-3591 -33 c-2 -5 1 -8 6 -8 6 0 11 -4 11 -10 0
-15 -38 -12 -43 3 -2 6 -2 20 1 29 3 13 7 14 17 5 7 -7 11 -15 8 -19z m-1996
7 c0 -6 -6 -12 -14 -12 -7 0 -13 6 -13 12 0 6 6 12 13 12 8 0 14 -6 14 -12z
m7215 -27 c-13 -13 -32 -2 -32 18 0 12 4 13 21 3 14 -7 18 -14 11 -21z m-92
-2 c0 -8 9 -17 19 -21 11 -3 24 -12 31 -20 9 -11 5 -17 -20 -30 -29 -15 -33
-15 -50 0 -20 18 -34 61 -25 75 10 15 45 12 45 -4z m-6040 -16 c4 -8 12 -25
18 -37 14 -26 15 -72 4 -90 -4 -7 -38 -24 -75 -37 -37 -13 -65 -20 -62 -15 4
5 -1 6 -9 3 -9 -3 -13 -11 -9 -17 4 -6 1 -7 -6 -2 -8 4 -18 -1 -27 -13 -16
-23 -41 -23 -55 -1 -12 19 -12 62 0 54 5 -3 12 -1 16 5 4 7 13 7 26 0 15 -8
21 -7 25 3 3 8 4 18 2 23 -3 13 62 124 74 124 5 0 7 4 4 9 -3 4 11 8 31 7 21
-1 39 -7 43 -16z m4341 3 c0 -5 2 -33 4 -63 6 -83 35 -131 92 -155 48 -20 44
-45 -7 -45 -51 0 -91 36 -118 105 -18 48 -22 130 -8 154 8 12 36 15 37 4z
m214 -23 c-3 -5 -16 -10 -28 -9 -21 0 -21 1 -2 9 28 12 37 12 30 0z m-662
-110 c48 -89 48 -89 27 -107 -11 -10 -20 -22 -20 -27 0 -22 -35 -46 -67 -46
-30 0 -33 -2 -23 -19 30 -56 -23 -74 -58 -20 -28 45 -38 18 -13 -34 27 -56 26
-65 -4 -77 -17 -7 -25 -17 -25 -34 0 -14 -6 -29 -13 -33 -6 -4 -18 -20 -26
-35 -8 -15 -22 -30 -33 -34 -10 -3 -18 -10 -18 -16 0 -9 -19 -36 -63 -88 -6
-8 -23 -30 -36 -50 -13 -19 -32 -41 -42 -48 -11 -7 -19 -20 -19 -28 0 -8 -7
-17 -15 -20 -8 -3 -17 -13 -20 -23 -2 -9 -15 -21 -26 -26 -12 -6 -29 -29 -38
-51 -9 -23 -22 -49 -30 -58 -19 -22 -63 -20 -94 5 l-27 20 -25 -25 c-20 -20
-23 -30 -16 -48 7 -19 15 -23 45 -21 30 2 36 -1 36 -18 0 -25 -43 -69 -67 -69
-38 1 -73 48 -73 99 0 44 37 101 65 101 23 0 42 29 60 90 10 33 24 50 51 60
13 5 25 21 28 38 4 15 20 43 36 61 17 18 30 36 30 42 0 5 3 9 8 9 4 0 28 28
52 62 65 89 68 91 112 84 31 -5 38 -3 36 8 -2 8 6 22 17 31 19 15 19 16 -13 9
-32 -6 -34 -5 -27 17 12 38 36 59 66 59 26 0 28 3 23 28 -8 41 47 112 87 112
23 0 29 4 29 23 0 12 10 42 21 66 17 38 18 49 8 74 -11 26 -10 31 5 43 10 7
23 11 29 8 7 -2 34 -45 60 -94z m-959 16 c18 -23 22 -40 19 -63 -3 -18 -11
-33 -18 -33 -12 0 -27 -22 -29 -43 -1 -4 -16 -16 -33 -27 -24 -14 -33 -27 -33
-46 0 -17 -6 -28 -18 -31 -10 -2 -26 -18 -36 -34 -10 -17 -28 -35 -39 -40 -12
-6 -35 -37 -51 -70 -30 -63 -56 -76 -76 -39 -8 16 -8 28 3 48 11 24 11 35 1
66 -12 33 -11 38 6 54 11 9 20 21 20 27 0 6 8 15 18 20 52 29 82 51 82 62 0
18 41 53 62 53 10 0 27 9 39 21 19 19 20 22 4 46 -13 19 -15 31 -7 48 14 31
56 22 86 -19z m1933 30 c-3 -7 5 -37 19 -66 27 -59 24 -74 -14 -65 -25 5 -27
3 -28 -30 -1 -42 -31 -86 -68 -100 -23 -8 -30 -5 -51 19 -20 23 -27 26 -44 16
-20 -10 -26 -31 -21 -75 4 -37 18 -44 51 -28 41 20 45 12 14 -26 -31 -37 -73
-41 -100 -11 -10 11 -15 20 -10 20 4 0 2 6 -4 14 -15 18 -5 74 18 103 10 12
31 23 47 25 23 2 28 7 26 24 -2 13 4 24 15 29 17 7 17 8 1 14 -16 6 -16 9 6
36 19 23 31 29 60 28 39 -1 45 10 21 42 -14 17 -13 20 7 32 31 17 62 17 55 -1z
m-3594 -89 c27 -27 32 -38 25 -56 -4 -13 -17 -25 -28 -28 -11 -3 -21 -9 -21
-14 -1 -5 -2 -15 -3 -21 -1 -7 -7 -12 -14 -11 -6 2 -9 -4 -6 -12 9 -23 -39
-19 -54 5 -7 12 -22 20 -40 19 -24 0 -25 -1 -7 -9 18 -8 17 -9 -7 -9 -16 -1
-28 1 -28 3 0 11 47 55 53 50 3 -3 3 4 0 16 -6 21 -3 22 31 18 30 -3 35 -1 31
13 -7 20 11 69 24 69 5 0 25 -15 44 -33z m3029 -39 c19 -15 40 -86 30 -102 -3
-6 -7 -16 -8 -23 -1 -6 -9 -21 -17 -33 -14 -19 -13 -25 1 -50 23 -40 5 -59
-38 -43 -29 11 -31 9 -66 -38 -19 -27 -37 -49 -39 -49 -2 0 -10 3 -19 6 -14 5
-14 8 -1 27 13 19 12 26 -17 76 -30 54 -49 76 -72 84 -7 2 -4 14 7 31 23 35
53 31 75 -9 43 -79 63 -105 82 -105 21 0 28 27 12 46 -5 5 -21 30 -35 56 -22
37 -25 49 -15 60 7 7 19 25 27 40 19 37 63 49 93 26z m-4112 -127 c12 -24 9
-62 -7 -78 -14 -16 -23 -17 -23 -3 0 6 -9 19 -20 30 -25 25 -26 57 -2 63 33 9
41 7 52 -12z m943 6 c-4 -6 0 -8 8 -5 10 4 15 -2 17 -17 1 -13 -5 -25 -12 -28
-17 -7 -40 18 -31 33 3 5 1 10 -5 10 -6 0 -9 4 -6 8 3 5 12 9 20 9 8 0 12 -5
9 -10z m-2029 -118 c-2 -57 -11 -89 -28 -101 -7 -5 -7 -8 2 -8 6 0 12 -5 12
-11 0 -5 -5 -7 -12 -3 -7 5 -9 1 -6 -12 3 -14 -1 -19 -16 -21 -12 0 -33 -3
-48 -6 -17 -2 -28 0 -28 7 0 7 -3 8 -8 1 -8 -12 -27 -13 -38 -2 -4 4 1 7 12 8
18 0 18 1 -1 9 -11 5 -14 9 -7 9 6 1 12 6 12 12 0 5 -6 7 -12 4 -7 -4 -6 -1 3
7 9 7 14 23 12 36 -1 13 0 21 5 18 4 -2 7 10 6 28 -2 32 -1 33 33 29 22 -2 32
0 28 7 -3 5 -1 10 5 10 6 0 9 4 6 9 -4 5 -2 11 3 13 5 1 11 10 13 18 5 26 22
31 39 11 10 -13 15 -36 13 -72z m5646 67 c0 -2 -9 -6 -20 -9 -11 -3 -18 -1
-14 4 5 9 34 13 34 5z m-166 -55 c3 -5 -5 -16 -19 -25 -31 -20 -36 -52 -6 -36
31 16 69 12 73 -7 11 -48 -29 -113 -69 -113 -30 0 -29 9 5 36 22 18 25 25 15
35 -10 10 -16 10 -25 1 -20 -20 -55 -14 -62 11 -3 12 -1 24 5 26 8 2 7 6 -2
11 -9 6 -4 16 19 39 30 31 56 39 66 22z m1084 -21 c16 -13 22 -26 17 -39 -4
-13 1 -24 16 -35 28 -19 18 -46 -16 -46 -19 0 -26 -5 -24 -17 4 -43 -20 -64
-48 -42 -10 9 -17 9 -25 1 -9 -9 -6 -18 10 -35 17 -18 19 -26 10 -35 -7 -7
-17 -12 -23 -12 -5 0 -16 -9 -23 -20 -10 -17 -15 -18 -32 -8 -16 10 -23 10
-37 -4 -14 -14 -15 -22 -5 -43 15 -32 16 -58 2 -50 -6 3 -15 -6 -20 -21 -8
-21 -14 -24 -22 -16 -7 7 -20 12 -29 12 -21 0 -29 19 -17 43 5 10 5 17 0 17
-19 0 -20 39 -2 45 10 3 20 14 23 25 4 16 11 19 35 14 34 -7 47 12 32 51 -6
16 -6 25 0 25 6 0 16 11 22 25 8 17 19 25 32 24 32 -4 66 11 66 27 0 9 -5 25
-11 36 -9 17 -8 24 3 32 8 6 18 23 22 39 8 32 13 33 44 7z m-4204 -65 c-9 -23
-39 -14 -40 12 -1 13 3 20 7 17 5 -3 9 0 9 6 0 7 6 5 15 -4 8 -8 12 -22 9 -31z
m2629 27 c17 -19 15 -25 -35 -94 -19 -27 -1 -34 25 -10 48 45 62 21 21 -34
-22 -29 -33 -34 -66 -34 -34 0 -39 -3 -33 -17 25 -59 -16 -88 -47 -33 -18 32
-38 40 -38 14 0 -8 10 -32 22 -53 25 -44 19 -74 -13 -69 -16 2 -35 26 -66 82
-52 94 -52 111 -1 111 20 0 40 3 44 8 4 4 23 7 41 7 30 0 34 3 28 20 -4 11 -1
36 5 55 20 60 79 84 113 47z m337 -47 c0 -21 -47 -42 -61 -28 -7 7 -5 15 6 27
21 20 55 21 55 1z m-4975 -83 c-2 -15 -9 -28 -15 -30 -5 -2 -10 -12 -10 -23 0
-11 -7 -22 -15 -25 -8 -4 -15 -12 -15 -18 0 -8 -13 -10 -37 -7 -21 2 -32 6
-25 8 10 4 10 8 2 19 -9 10 -6 19 16 39 26 24 41 29 74 26 13 -2 13 0 1 8 -12
8 -12 12 -2 25 18 22 32 10 26 -22z m5020 1 c14 -26 29 -39 48 -43 l28 -5 -43
-48 c-31 -35 -48 -47 -60 -42 -14 5 -15 10 -5 20 7 7 15 11 19 8 4 -2 -2 15
-15 39 -16 32 -30 44 -51 48 l-28 5 26 28 c34 37 57 34 81 -10z m2269 -6 c-2
-12 -8 -23 -14 -25 -6 -2 -17 -10 -25 -19 -9 -9 -15 -10 -15 -3 0 6 -5 8 -10
5 -6 -4 -1 11 10 33 16 30 26 39 40 35 13 -3 17 -12 14 -26z m-6824 -38 c0
-10 0 -22 -1 -25 0 -4 3 -10 8 -13 5 -3 4 -17 -4 -31 -7 -14 -13 -20 -13 -13
0 7 -6 10 -13 7 -37 -14 -78 73 -50 106 14 16 18 16 44 3 17 -8 29 -22 29 -34z
m4436 19 c4 -13 10 -25 14 -28 3 -3 14 -18 22 -35 9 -16 23 -45 33 -63 20 -38
13 -52 -30 -55 -23 -2 -28 2 -31 26 -3 31 -22 60 -34 52 -11 -7 0 -58 18 -77
8 -10 26 -18 39 -18 23 0 23 -1 7 -25 -20 -31 -63 -33 -90 -4 -26 29 -28 106
-3 141 18 25 18 30 6 55 -18 35 -12 53 18 53 16 0 26 -8 31 -22z m-3004 -26
c0 -9 1 -23 1 -29 -1 -7 3 -11 7 -8 4 2 17 -6 29 -19 l23 -24 -22 -7 c-25 -8
-61 20 -53 41 3 8 -1 14 -10 14 -16 0 -27 18 -20 35 6 18 43 15 45 -3z m4899
-99 c4 -5 11 -23 14 -42 6 -33 5 -33 -25 -29 -16 3 -30 1 -30 -4 0 -8 24 -12
45 -8 6 1 5 -4 -2 -11 -8 -8 -9 -18 -3 -29 9 -16 5 -64 -6 -82 -6 -9 -55 -11
-78 -2 -9 3 -16 12 -16 19 0 15 -35 29 -49 21 -15 -10 -5 44 12 62 47 50 57
63 57 70 0 4 7 17 15 29 15 21 48 24 66 6z m-6978 -57 c24 3 21 -23 -4 -36
-23 -13 -32 -8 -35 17 -3 22 6 38 15 25 3 -5 14 -8 24 -6z m4413 -27 c-21 -31
-4 -63 29 -55 23 6 23 5 10 -21 -13 -25 -12 -31 10 -69 14 -24 25 -47 25 -53
0 -23 -40 -10 -56 18 -10 16 -25 32 -35 34 -12 3 -15 12 -12 30 3 13 1 27 -5
31 -15 9 3 88 24 103 24 18 29 9 10 -18z m1679 -1 c20 -9 25 -17 21 -33 -3
-11 1 -33 8 -47 12 -23 12 -27 0 -32 -8 -3 -14 -14 -12 -23 2 -14 -5 -19 -28
-21 -38 -4 -51 -28 -50 -94 1 -42 -2 -49 -25 -58 -28 -12 -49 -47 -49 -81 0
-16 -3 -18 -19 -9 -15 8 -19 19 -17 50 2 22 0 43 -4 45 -4 3 -7 17 -7 32 0 15
-6 29 -12 31 -29 10 5 82 40 82 10 0 19 -7 19 -15 0 -20 47 -68 59 -61 11 7 2
46 -11 46 -5 0 -7 15 -4 32 3 18 1 35 -3 38 -5 3 -11 15 -15 28 -6 18 -4 22
15 22 12 0 37 -10 56 -21 19 -12 36 -19 39 -16 3 3 -6 27 -20 53 -14 26 -23
51 -20 56 7 10 8 10 39 -4z m-3664 -17 c15 -1 45 -47 41 -64 -1 -4 3 -17 8
-28 17 -31 3 -56 -33 -63 -27 -5 -33 -10 -32 -33 0 -20 -6 -28 -27 -34 -29 -7
-43 7 -28 31 4 7 2 30 -5 51 -11 31 -11 37 -1 33 8 -3 16 4 19 15 3 12 2 21
-2 21 -9 0 -8 26 3 57 4 13 13 20 24 18 9 -2 24 -4 33 -4z m4414 -101 c10 -11
24 -20 32 -20 7 0 13 -11 13 -24 0 -36 -35 -44 -71 -17 -54 40 -69 -3 -18 -50
26 -24 29 -32 19 -44 -17 -20 -46 -19 -62 3 -7 11 -23 24 -35 31 -18 9 -23 20
-23 52 0 34 4 41 27 50 14 5 32 8 40 5 7 -3 19 3 25 14 16 25 30 25 53 0z
m-6480 -53 c3 -24 -1 -37 -10 -41 -16 -6 -45 19 -45 39 0 23 12 45 21 39 5 -3
9 0 9 7 0 28 22 -10 25 -44z m4529 6 c-16 -26 -16 -26 10 -19 14 3 26 4 26 1
0 -3 -17 -28 -37 -55 -38 -51 -81 -70 -68 -30 5 16 2 20 -15 20 -25 0 -25 1
15 57 30 41 63 65 78 56 4 -3 1 -16 -9 -30z m-2594 -31 c-5 -2 -1 -12 7 -22 9
-10 20 -17 24 -14 5 2 13 -4 18 -15 8 -14 7 -22 -5 -31 -20 -17 -68 6 -59 29
3 8 3 12 -1 8 -4 -4 -15 0 -25 9 -17 15 -17 17 4 38 16 16 25 19 33 12 7 -6 8
-12 4 -14z m2084 -14 c15 -25 -7 -47 -29 -28 -8 7 -24 10 -35 7 -14 -4 -20 0
-20 12 0 10 3 21 7 25 13 13 66 1 77 -16z m-3028 -3 c16 -5 21 -16 23 -51 2
-38 -1 -44 -18 -44 -11 0 -23 5 -26 10 -4 6 -10 8 -14 5 -12 -7 -32 42 -25 60
4 8 10 15 16 15 5 0 7 4 4 9 -6 9 2 9 40 -4z m5794 -1 c0 -13 -3 -14 -15 -4
-8 6 -20 8 -26 4 -8 -4 -9 -3 -5 4 11 18 46 14 46 -4z m-2817 -50 c25 6 26 5
12 -21 -17 -32 -3 -48 28 -31 25 13 31 5 15 -21 -40 -65 -127 -17 -106 58 7
24 12 31 18 21 5 -8 17 -10 33 -6z m2362 -15 c3 -13 19 -36 37 -52 32 -26 32
-28 14 -42 -11 -8 -23 -15 -27 -15 -4 0 -10 -8 -14 -17 -3 -10 -18 -33 -34
-52 -22 -27 -35 -34 -67 -35 -35 -1 -39 -4 -42 -29 -2 -16 -10 -31 -18 -34
-19 -7 -18 -53 1 -53 8 0 15 -3 15 -8 0 -15 -31 -52 -44 -52 -8 0 -21 -11 -30
-25 -18 -27 -36 -33 -36 -12 0 24 -31 77 -45 77 -39 0 -8 -92 35 -103 28 -7
25 -42 -6 -66 -22 -17 -24 -24 -14 -36 14 -17 5 -35 -18 -35 -24 0 -156 101
-160 123 -6 28 40 21 83 -13 34 -27 65 -39 65 -25 0 3 -11 28 -25 55 -14 27
-25 57 -25 65 0 28 49 82 80 88 21 5 35 17 49 45 12 25 30 42 44 46 16 4 27
16 32 33 7 30 32 63 47 63 5 0 8 -8 6 -17 -2 -13 3 -17 17 -15 28 5 30 9 18
35 -25 52 -43 109 -37 119 4 5 18 8 33 5 15 -3 33 -2 41 3 17 11 19 9 25 -21z
m-2457 -18 c18 -22 32 -44 32 -48 0 -5 9 -25 20 -45 18 -33 18 -39 4 -53 -23
-23 -34 -18 -41 16 -7 38 -50 70 -64 48 -12 -19 -11 -8 2 29 7 22 7 36 -1 51
-11 21 -6 41 9 41 4 0 22 -18 39 -39z m-4521 -42 c-1 -13 -7 -17 -22 -14 -11
2 -23 4 -27 4 -19 2 -6 21 15 22 l22 0 -22 9 c-13 5 -23 12 -23 15 0 4 5 3 10
0 6 -3 10 -1 10 6 0 8 7 6 19 -5 11 -10 19 -26 18 -37z m6089 -11 c-22 -31
-20 -38 9 -38 22 0 24 -3 16 -18 -15 -28 5 -55 37 -48 20 5 23 4 12 -4 -8 -5
-11 -10 -6 -10 5 0 1 -9 -9 -20 -10 -11 -27 -20 -38 -20 -14 0 -18 -5 -14 -20
4 -15 -2 -24 -25 -36 -17 -9 -27 -11 -24 -5 5 7 -2 11 -18 11 -31 0 -42 -16
-25 -36 8 -10 21 -13 36 -9 22 5 23 4 13 -15 -6 -12 -22 -26 -36 -32 -13 -6
-24 -19 -24 -30 0 -22 -18 -23 -42 -2 -14 14 -20 14 -33 4 -18 -15 -20 -41 -3
-58 20 -20 18 -42 -3 -42 -12 0 -24 11 -32 28 -6 15 -14 29 -17 32 -3 3 -11
18 -18 34 -16 36 0 51 32 30 19 -12 23 -11 33 5 9 14 8 25 -3 46 -19 37 -18
45 6 45 11 0 20 7 20 15 0 20 30 32 39 16 5 -8 14 -8 34 2 30 14 34 34 12 63
-20 27 -19 33 10 46 19 8 22 14 13 20 -10 7 -9 11 5 22 9 7 17 18 17 24 0 11
32 33 38 27 2 -2 -3 -14 -12 -27z m-1142 -17 c14 -21 37 -63 51 -92 20 -43 23
-56 13 -64 -7 -6 -21 -24 -30 -40 -13 -24 -24 -31 -57 -33 -32 -3 -46 -10 -70
-39 -35 -42 -31 -62 6 -33 33 26 57 27 44 3 -22 -41 -61 -73 -89 -73 -28 0
-30 -2 -30 -41 -1 -45 -35 -105 -64 -115 -10 -3 -18 -14 -18 -24 0 -11 -9 -24
-20 -30 -11 -6 -20 -17 -20 -25 0 -7 -9 -16 -19 -20 -11 -3 -21 -16 -23 -28
-3 -19 -9 -22 -40 -20 -31 2 -41 -3 -59 -28 -25 -36 -19 -47 13 -25 45 32 52
11 12 -41 -31 -41 -83 -47 -108 -11 -36 51 -5 160 49 174 15 4 24 12 21 19 -5
14 30 76 50 88 8 4 14 14 14 22 0 8 13 21 30 30 l29 15 -20 35 c-28 47 -20 68
25 60 20 -4 36 -2 40 4 4 6 23 11 42 11 33 0 34 1 34 41 0 54 31 99 68 99 25
0 29 6 50 74 20 62 21 77 11 94 -10 17 -10 23 0 36 21 25 39 19 65 -23z m-820
13 c23 -9 20 -51 -5 -64 -26 -14 -49 3 -49 35 0 29 23 41 54 29z m-154 -74 c4
-39 9 -47 37 -60 36 -17 41 -35 16 -62 -19 -21 -52 -23 -76 -5 -33 25 -77 90
-77 114 0 46 18 64 58 61 36 -3 37 -4 42 -48z m-1028 33 c-8 -3 -6 -10 8 -21
27 -22 35 -79 13 -100 -16 -17 -43 -25 -41 -14 3 19 -15 40 -29 35 -12 -5 -14
-3 -8 7 6 10 4 12 -7 7 -12 -4 -15 0 -13 18 1 14 8 31 15 40 7 8 9 16 4 16 -5
1 5 5 21 9 35 9 56 11 37 3z m1546 -51 c15 -16 33 -31 41 -33 23 -8 5 -39 -23
-39 -30 0 -56 34 -56 72 0 35 5 35 38 0z m-603 -78 c20 -8 45 -56 45 -86 -1
-61 -48 -138 -86 -138 -8 0 -18 -10 -23 -22 -32 -82 -46 -108 -63 -114 -10 -3
-25 -15 -32 -27 -19 -30 -30 -97 -16 -97 17 0 12 -30 -11 -61 -37 -53 -99 -34
-138 42 -53 100 -48 228 9 269 16 12 37 34 46 49 13 21 25 28 51 29 57 2 86
23 115 82 36 73 60 90 103 74z m-1038 -93 c22 -18 22 -18 4 -36 -19 -16 -21
-16 -50 1 -16 10 -28 21 -25 25 2 4 0 10 -6 14 -5 3 -10 1 -10 -6 0 -19 -13
-1 -17 23 -2 12 -1 19 3 15 3 -3 13 1 22 9 13 14 17 13 36 -6 12 -11 31 -29
43 -39z m1419 -34 c-23 -20 -23 -22 -8 -54 9 -18 19 -33 23 -33 4 0 20 -5 35
-10 26 -10 26 -11 9 -30 -23 -26 -50 -25 -75 0 -27 27 -24 106 5 136 11 11 23
19 28 17 4 -2 -4 -14 -17 -26z m2824 -31 c0 -23 -16 -27 -17 -5 -1 10 2 19 8
19 5 0 9 -6 9 -14z m-5870 -29 c21 -17 21 -67 -1 -67 -25 0 -41 25 -33 54 7
29 12 31 34 13z m4610 -2 c7 -8 10 -15 6 -15 -3 0 6 -18 20 -40 15 -22 33 -40
40 -40 25 0 15 -35 -13 -47 -35 -16 -66 -66 -50 -82 8 -8 6 -11 -8 -11 -11 0
-31 -3 -44 -7 -17 -4 -22 -3 -17 5 4 7 0 15 -8 18 -9 3 -16 12 -16 18 0 7 -6
21 -14 31 -14 19 -14 19 -36 0 -17 -15 -20 -27 -16 -58 3 -21 12 -44 19 -52
15 -15 61 -9 51 6 -3 5 2 9 10 9 22 0 20 -12 -4 -38 -29 -31 -90 -28 -90 5 0
10 -6 12 -20 8 -13 -4 -26 0 -38 11 -16 17 -16 18 1 11 9 -3 17 -2 17 3 0 6
-5 10 -11 10 -7 0 0 9 15 21 14 11 24 25 21 30 -4 5 -2 9 4 9 6 0 8 7 5 15 -7
18 33 54 60 55 11 0 30 -10 43 -22 20 -19 25 -20 33 -8 5 8 10 11 10 6 0 -6 5
-5 11 1 6 6 18 9 25 6 18 -7 18 9 -1 53 -14 33 -35 39 -35 9 0 -20 -37 -7 -43
16 -3 10 1 23 9 30 8 6 11 15 9 20 -3 4 3 12 12 18 24 14 28 14 43 -4z m-2656
-48 c20 -14 40 -89 26 -97 -5 -3 -12 -21 -15 -39 -10 -56 -35 -91 -67 -91 -21
0 -29 -6 -34 -25 -3 -14 -10 -25 -14 -25 -4 0 -10 -10 -14 -23 -4 -17 -12 -22
-33 -21 -16 1 -27 7 -25 13 1 7 -3 9 -9 5 -6 -3 -14 -1 -18 5 -10 15 -1 71 10
71 5 0 9 7 9 16 0 15 2 15 23 2 32 -22 47 -12 47 32 0 27 8 48 26 70 20 23 24
34 15 43 -41 41 25 99 73 64z m1021 -3 c20 -8 58 -81 51 -100 -7 -18 -34 -7
-41 16 -3 10 -21 24 -39 32 -29 11 -32 16 -25 36 8 22 24 27 54 16z m1616 -67
c-1 -4 -1 -11 -1 -15 0 -5 -7 -9 -15 -9 -8 0 -15 4 -15 9 0 4 5 8 12 8 6 0 3
7 -8 15 -18 14 -18 15 4 7 13 -4 23 -11 23 -15z m-1657 -14 c4 -16 14 -43 24
-60 13 -26 14 -35 4 -45 -9 -9 -20 -3 -51 28 -39 38 -44 61 -24 97 11 18 41 5
47 -20z m-3014 -8 c0 -8 -6 -14 -12 -12 -7 1 -12 -4 -10 -12 2 -8 0 -27 -3
-42 -12 -56 -91 -44 -80 12 5 25 24 41 42 35 6 -3 19 4 29 15 21 23 34 25 34
4z m5400 -4 c0 -33 11 -51 42 -67 31 -16 29 -30 -8 -44 -17 -7 -24 -17 -24
-35 0 -21 -4 -26 -21 -23 -15 2 -34 25 -60 71 -22 38 -39 75 -39 83 0 21 25
28 49 14 17 -9 22 -8 27 5 9 22 34 19 34 -4z m-2455 -62 c-3 -12 5 -48 15 -80
11 -32 20 -69 20 -81 0 -35 -11 -68 -22 -68 -6 0 -8 6 -5 14 8 20 -17 51 -68
86 -43 30 -59 59 -32 61 6 1 26 0 43 -1 l32 -1 -5 45 c-5 37 -3 46 10 46 11 0
15 -7 12 -21z m2781 3 c6 -4 16 -18 23 -32 11 -23 11 -23 -3 -7 -8 10 -23 25
-33 32 -18 15 -7 21 13 7z m-4814 -14 c19 -14 14 -73 -5 -61 -6 4 -7 1 -1 -8
15 -24 12 -35 -10 -36 -11 -1 -15 1 -8 4 6 3 12 9 12 15 0 6 -6 8 -12 5 -9 -3
-13 8 -12 37 2 64 5 68 36 44z m4358 -23 c0 -9 -9 -15 -25 -15 -16 0 -25 6
-25 15 0 9 9 15 25 15 16 0 25 -6 25 -15z m45 -64 c8 -17 25 -37 37 -45 l22
-16 -21 -27 c-18 -25 -64 -48 -50 -26 9 14 -20 71 -42 83 -24 12 -27 30 -9 48
21 21 47 13 63 -17z m-6535 -1 c0 -5 8 -7 18 -4 16 5 16 5 -1 -6 -9 -6 -15
-15 -12 -21 4 -5 -1 -9 -9 -9 -9 0 -16 -5 -16 -11 0 -5 -5 -7 -12 -3 -8 5 -8
9 -1 11 5 2 8 15 5 28 -3 18 0 25 12 25 9 0 16 -4 16 -10z m5715 -10 c-3 -5
10 -19 29 -31 40 -24 39 -39 -4 -39 -25 0 -28 -3 -24 -25 5 -29 -1 -31 -22
-10 -9 8 -11 15 -6 15 5 0 9 7 9 15 0 8 -6 15 -14 15 -7 0 -13 4 -13 8 0 4
-13 13 -30 19 -45 17 -36 32 23 36 28 2 53 4 55 5 2 1 0 -2 -3 -8z m1142 -6
c-3 -3 -12 -4 -19 -1 -8 3 -5 6 6 6 11 1 17 -2 13 -5z m330 -10 c8 -23 -10
-36 -40 -29 -22 6 -25 10 -16 26 12 23 47 25 56 3z m-277 -14 c-6 -11 -13 -20
-15 -20 -2 0 -9 9 -15 20 -9 18 -8 20 15 20 23 0 24 -2 15 -20z m-106 -16 c8
-21 -12 -17 -24 6 -8 16 -8 18 4 14 8 -3 17 -12 20 -20z m-5272 -21 c-6 -32
-21 -39 -37 -17 -17 24 -8 44 19 42 18 -2 22 -7 18 -25z m4096 20 c-7 -26 55
-98 78 -89 7 3 14 1 14 -4 0 -6 -7 -10 -15 -10 -8 0 -15 -7 -15 -15 0 -8 -8
-19 -19 -24 -10 -6 -21 -23 -24 -39 -4 -19 -17 -34 -41 -47 -20 -11 -36 -22
-37 -25 0 -3 -2 -15 -3 -26 -3 -30 -39 -71 -56 -66 -14 5 -46 32 -37 32 2 0
-6 21 -19 47 -20 42 -21 50 -8 64 8 9 12 18 9 21 -12 12 26 30 50 24 21 -5 24
-11 19 -31 -4 -18 -2 -25 8 -25 26 0 27 11 2 58 -23 43 -24 47 -7 53 10 3 21
2 24 -3 7 -11 56 0 65 13 3 6 -4 26 -16 46 -17 29 -18 38 -8 44 16 11 39 11
36 2z m812 -10 c0 -2 -5 -13 -10 -24 -14 -25 13 -79 40 -79 10 0 21 -4 25 -10
7 -11 -30 -50 -47 -50 -18 1 -48 25 -48 38 0 6 -8 17 -18 24 -23 16 -38 94
-19 101 14 6 77 6 77 0z m-2353 -34 c22 -22 3 -47 -43 -54 -70 -10 -93 5 -78
53 4 15 105 17 121 1z m3049 -29 c24 -11 44 -25 44 -30 0 -16 -33 -29 -52 -19
-36 19 -55 -10 -64 -99 -2 -18 -9 -47 -16 -63 -11 -25 -19 -29 -53 -30 -22 -1
-47 -2 -55 -3 -8 -1 -20 2 -27 7 -13 10 -38 -28 -28 -43 3 -6 -5 -10 -20 -10
-23 0 -24 2 -15 20 6 11 19 24 30 30 11 6 20 19 20 30 0 27 27 50 60 50 27 0
46 22 35 40 -9 14 26 90 41 90 8 0 14 5 14 11 0 10 28 38 38 39 2 0 23 -9 48
-20z m-3712 -6 c8 -3 20 -21 26 -39 6 -19 20 -37 30 -40 33 -10 36 -77 5 -89
-14 -5 -45 18 -45 34 0 4 -17 29 -39 55 -52 63 -40 103 23 79z m533 -74 c9
-16 21 -30 25 -30 4 0 8 -13 8 -29 0 -29 -21 -57 -33 -44 -4 3 -7 -5 -7 -19 0
-32 -20 -49 -48 -41 -23 6 -31 46 -11 58 6 4 8 13 5 20 -2 7 0 17 5 22 7 7 5
16 -5 26 -19 19 -21 53 -3 60 28 12 47 5 64 -23z m2410 24 c64 -17 43 -184
-23 -184 -10 0 -14 -8 -12 -22 3 -22 -1 -23 -74 -26 -75 -3 -76 -3 -91 27 -19
38 -7 55 38 55 28 0 34 3 29 16 -18 44 -17 50 15 56 22 5 37 16 48 38 23 44
32 50 70 40z m393 -60 c0 -2 -7 -4 -15 -4 -8 0 -15 4 -15 10 0 5 7 7 15 4 8
-4 15 -8 15 -10z m-4453 0 c-4 -4 3 -20 15 -36 21 -30 21 -30 0 -17 -11 7 -18
17 -15 23 3 5 1 6 -6 2 -9 -6 -9 -11 0 -22 11 -13 9 -13 -14 -3 -40 18 -36 59
6 59 11 0 17 -3 14 -6z m5012 -70 c-8 -10 -22 -11 -47 -5 -1 1 2 10 8 21 9 17
14 18 30 8 13 -9 16 -16 9 -24z m-3931 -19 c11 -10 -15 -40 -34 -40 -14 0 -18
-7 -17 -23 2 -19 -2 -22 -32 -22 -42 0 -57 22 -43 62 6 15 13 26 17 24 4 -3
12 -1 19 3 13 8 81 5 90 -4z m3242 -45 l32 -40 -67 0 c-50 0 -64 3 -59 13 20
34 46 67 54 67 5 0 23 -18 40 -40z m-5880 -10 c12 -8 11 -10 -7 -10 -13 0 -23
5 -23 10 0 13 11 13 30 0z m1003 -5 c8 -8 18 -11 22 -7 5 4 5 1 1 -5 -10 -18
-86 -17 -86 1 0 26 41 33 63 11z m5504 2 c-4 7 7 4 25 -5 l33 -17 -49 -3 c-55
-4 -64 1 -46 23 10 12 16 13 28 3 11 -9 14 -9 9 -1z m4437 -446 c120 -120 217
-223 215 -228 -2 -6 -98 -110 -213 -232 l-209 -221 -121 0 -120 0 50 53 c28
28 106 113 174 187 68 74 139 151 158 171 l33 36 -203 217 c-112 120 -204 222
-206 227 -2 5 45 9 110 9 l113 0 219 -219z m-316 -64 l163 -164 -162 -171
-163 -172 -85 0 -85 0 25 28 c14 15 74 81 134 147 61 66 119 130 129 142 l19
23 -109 116 c-60 64 -128 138 -152 165 l-44 49 84 0 83 0 163 -163z m-9272
-22 c6 -15 -31 -75 -47 -75 -14 0 -11 27 6 60 17 33 32 38 41 15z m-1667 -14
c19 -12 6 -41 -18 -41 -26 0 -36 17 -21 35 14 17 20 18 39 6z m-115 -22 c37
-29 37 -91 0 -115 -14 -10 -21 -20 -17 -23 18 -12 54 -81 48 -91 -14 -23 -41
-7 -67 40 -24 42 -32 50 -57 50 -28 0 -30 -2 -33 -47 -3 -40 -6 -48 -23 -48
-19 0 -20 8 -23 114 -1 63 0 121 2 128 4 9 27 13 74 13 55 0 75 -4 96 -21z
m864 -107 c2 -103 0 -123 -13 -128 -8 -4 -22 -1 -29 5 -10 8 -16 9 -21 1 -3
-5 -24 -10 -45 -10 -32 0 -43 5 -57 27 -10 14 -18 43 -18 63 0 57 27 90 73 90
21 0 43 -5 50 -12 9 -9 12 0 12 41 0 49 2 52 23 49 21 -3 22 -7 25 -126z m564
99 c31 -28 33 -33 33 -101 0 -68 -2 -73 -33 -101 -27 -24 -41 -29 -86 -29 -43
0 -58 5 -80 25 -48 44 -59 109 -30 171 21 44 56 63 116 64 39 0 54 -5 80 -29z
m476 -83 c2 -100 4 -108 22 -108 13 0 20 -7 20 -20 0 -16 -7 -20 -35 -20 -48
0 -55 19 -55 150 0 110 0 111 23 108 21 -3 22 -8 25 -110z m780 0 l3 -108 59
0 c54 0 60 -2 60 -20 0 -20 -5 -21 -82 -18 l-83 3 -3 128 -3 128 23 -3 c22 -3
23 -7 26 -110z m-1120 59 c3 -23 8 -27 33 -27 40 0 37 -33 -4 -38 -22 -3 -27
-8 -27 -30 0 -51 11 -71 39 -74 41 -5 33 -32 -10 -36 -52 -4 -69 17 -69 83 0
44 -3 53 -20 58 -11 3 -20 12 -20 21 0 9 8 16 20 16 14 0 20 7 20 23 0 46 33
49 38 4z m-1443 -117 c0 -81 -1 -85 -22 -88 -22 -3 -23 -1 -23 88 0 89 1 91
23 88 21 -3 22 -7 22 -88z m179 84 c9 -3 16 -13 16 -21 0 -12 -8 -14 -36 -10
-27 5 -40 1 -55 -14 -42 -42 -7 -102 55 -92 20 3 36 1 36 -4 0 -38 -94 -46
-128 -10 -39 42 -37 111 6 143 18 14 79 18 106 8z m179 -9 c18 -17 31 -96 22
-135 -5 -21 -13 -30 -26 -30 -10 0 -19 5 -19 12 0 9 -3 9 -12 0 -17 -17 -68
-15 -90 5 -21 19 -24 56 -4 72 7 6 34 14 60 17 49 7 55 14 31 34 -12 10 -24
11 -50 2 -39 -11 -55 -1 -35 23 16 20 104 20 123 0z m107 5 c0 -7 6 -7 19 0
29 15 61 12 61 -5 0 -9 -8 -18 -17 -21 -42 -13 -48 -22 -53 -80 -4 -52 -8 -59
-27 -62 -22 -3 -23 -1 -23 87 0 84 1 91 20 91 11 0 20 -5 20 -10z m470 -10
c38 -38 38 -102 0 -140 -29 -29 -100 -27 -128 3 -39 42 -37 111 6 143 27 21
99 17 122 -6z m732 3 c14 -13 18 -31 18 -90 0 -66 -2 -73 -20 -73 -11 0 -20 5
-20 12 0 9 -3 9 -12 0 -17 -17 -74 -15 -92 4 -20 20 -21 58 -1 74 8 7 35 15
60 18 48 5 54 12 30 32 -12 10 -24 11 -51 2 -29 -9 -36 -8 -41 5 -3 8 0 19 8
24 24 15 101 10 121 -8z m333 -8 c19 -18 25 -35 25 -65 0 -57 -34 -90 -91 -90
-60 0 -89 29 -89 89 0 62 28 91 87 91 33 0 50 -6 68 -25z m105 15 c0 -7 6 -7
19 0 29 15 61 12 61 -5 0 -9 -8 -18 -17 -21 -42 -13 -48 -22 -53 -80 -4 -52
-8 -59 -27 -62 -22 -3 -23 -1 -23 87 0 84 1 91 20 91 11 0 20 -5 20 -10z m244
-12 c11 -15 16 -45 16 -90 0 -61 -2 -68 -20 -68 -11 0 -20 5 -20 12 0 9 -3 9
-12 0 -16 -16 -83 -15 -95 1 -35 44 -11 85 55 94 33 4 42 10 40 22 -3 12 -14
15 -51 13 -36 -2 -47 0 -47 12 0 19 15 24 72 25 38 1 50 -3 62 -21z m414 -48
c4 -77 22 -98 56 -64 11 11 16 34 16 75 0 57 1 60 23 57 20 -3 22 -9 25 -86 2
-67 0 -83 -13 -88 -8 -4 -22 -1 -29 5 -10 8 -16 9 -21 1 -10 -16 -66 -12 -87
7 -14 13 -18 31 -18 90 0 71 1 74 23 71 20 -3 22 -9 25 -68z m212 58 c0 -9 3
-9 12 0 7 7 29 12 50 12 48 0 58 -18 58 -109 0 -63 -2 -71 -19 -71 -16 0 -19
10 -23 66 -4 60 -15 83 -40 84 -23 0 -38 -36 -38 -91 0 -57 -1 -60 -22 -57
-21 3 -23 9 -26 77 -2 41 -1 80 2 88 7 16 46 17 46 1z m306 -2 c16 -12 19 -27
19 -87 l0 -73 -67 -3 c-62 -3 -69 -1 -84 22 -9 13 -13 33 -9 44 6 21 52 41 92
41 18 0 24 5 21 18 -3 14 -13 17 -56 14 -53 -3 -67 8 -34 27 25 15 95 13 118
-3z"/>
<path d="M405 8290 c3 -5 8 -10 11 -10 2 0 4 5 4 10 0 6 -5 10 -11 10 -5 0 -7
-4 -4 -10z"/>
<path d="M3155 7130 c6 -10 4 -12 -11 -6 -15 6 -17 5 -6 -5 9 -9 15 -10 23 -2
8 8 7 13 -2 18 -8 6 -10 4 -4 -5z"/>
<path d="M5991 6469 c-23 -9 -23 -10 -6 -29 24 -26 52 -26 50 0 -2 30 -17 39
-44 29z"/>
<path d="M5788 6253 c6 -2 9 -10 6 -15 -4 -7 -2 -8 4 -4 18 11 14 26 -5 25
-11 0 -13 -3 -5 -6z"/>
<path d="M6100 5995 c7 -8 17 -15 22 -15 6 0 5 7 -2 15 -7 8 -17 15 -22 15 -6
0 -5 -7 2 -15z"/>
<path d="M6616 5363 c4 -16 13 -34 20 -42 11 -13 14 -12 20 3 9 23 -11 66 -31
66 -12 0 -14 -7 -9 -27z"/>
<path d="M6395 5111 c-9 -16 17 -61 37 -61 20 0 23 21 8 51 -11 20 -35 25 -45
10z"/>
<path d="M6816 5012 c-10 -16 10 -67 27 -70 20 -4 22 16 5 53 -11 26 -23 32
-32 17z"/>
<path d="M7490 4430 c-22 -22 -27 -50 -9 -50 14 0 53 32 56 47 4 21 -27 23
-47 3z"/>
<path d="M1030 4326 c0 -2 7 -7 16 -10 8 -3 12 -2 9 4 -6 10 -25 14 -25 6z"/>
<path d="M7103 4121 c0 -11 6 -17 14 -14 18 7 17 33 -1 33 -8 0 -14 -8 -13
-19z"/>
<path d="M3740 3841 c0 -6 4 -13 10 -16 6 -3 7 1 4 9 -7 18 -14 21 -14 7z"/>
<path d="M7697 3673 c-11 -18 15 -81 36 -87 12 -3 23 -3 26 -1 2 3 -1 5 -7 5
-7 0 -12 11 -12 24 0 28 -34 74 -43 59z"/>
<path d="M2036 3478 c3 -5 10 -6 15 -3 13 9 11 12 -6 12 -8 0 -12 -4 -9 -9z"/>
<path d="M6566 3431 c-9 -14 16 -66 29 -63 13 4 7 43 -10 60 -9 10 -15 11 -19
3z"/>
<path d="M6006 2722 c-8 -13 18 -57 37 -60 19 -4 23 19 7 49 -11 19 -35 26
-44 11z"/>
<path d="M7497 3403 c-12 -11 -7 -57 7 -75 30 -41 48 -2 26 56 -9 26 -21 32
-33 19z"/>
<path d="M6985 3330 c2 -16 10 -40 17 -52 13 -22 13 -22 16 15 3 36 -10 67
-28 67 -5 0 -7 -13 -5 -30z"/>
<path d="M1810 3230 c0 -5 5 -10 11 -10 5 0 7 5 4 10 -3 6 -8 10 -11 10 -2 0
-4 -4 -4 -10z"/>
<path d="M8380 3071 c0 -6 4 -13 10 -16 6 -3 7 1 4 9 -7 18 -14 21 -14 7z"/>
<path d="M6770 3070 c0 -5 5 -10 10 -10 6 0 10 5 10 10 0 6 -4 10 -10 10 -5 0
-10 -4 -10 -10z"/>
<path d="M7940 2501 c0 -24 24 -71 36 -71 17 0 17 -1 3 38 -9 28 -39 53 -39
33z"/>
<path d="M6637 2284 c-8 -9 2 -54 16 -72 19 -24 30 4 17 42 -11 35 -20 43 -33
30z"/>
<path d="M6530 2140 c0 -5 5 -10 10 -10 6 0 10 5 10 10 0 6 -4 10 -10 10 -5 0
-10 -4 -10 -10z"/>
<path d="M6420 1977 c0 -34 25 -65 41 -50 9 9 9 19 -1 42 -15 36 -40 41 -40 8z"/>
<path d="M5560 2121 c0 -24 15 -35 36 -27 12 4 13 10 4 26 -14 26 -40 26 -40
1z"/>
<path d="M7378 1783 c7 -3 16 -2 19 1 4 3 -2 6 -13 5 -11 0 -14 -3 -6 -6z"/>
<path d="M1630 1714 c0 -8 5 -12 10 -9 6 4 8 11 5 16 -9 14 -15 11 -15 -7z"/>
<path d="M7248 1529 c-24 -14 -22 -25 4 -33 30 -7 47 10 28 29 -11 10 -20 11
-32 4z"/>
<path d="M7138 1473 c7 -3 16 -2 19 1 4 3 -2 6 -13 5 -11 0 -14 -3 -6 -6z"/>
<path d="M7157 1413 c-12 -11 -8 -23 8 -23 8 0 15 -5 15 -11 0 -5 5 -7 11 -4
6 4 8 10 5 13 -3 3 -1 11 5 19 9 10 6 13 -13 13 -14 0 -28 -3 -31 -7z"/>
<path d="M8718 1578 c-4 -9 -4 -18 -1 -21 7 -8 33 3 33 15 0 5 -4 7 -9 4 -5
-4 -11 -1 -13 6 -3 8 -6 6 -10 -4z"/>
<path d="M7970 1468 c0 -13 6 -33 14 -44 22 -28 44 -4 30 33 -12 36 -44 44
-44 11z"/>
<path d="M1850 710 c0 -40 0 -40 39 -40 23 0 46 7 55 16 19 18 19 20 6 45 -8
14 -21 19 -55 19 l-45 0 0 -40z"/>
<path d="M2716 658 c-21 -30 -20 -61 2 -81 23 -21 36 -21 56 -1 31 31 11 104
-29 104 -8 0 -21 -10 -29 -22z"/>
<path d="M3265 730 c-13 -14 -19 -36 -19 -70 0 -61 23 -90 70 -90 41 0 74 38
74 87 0 35 -15 73 -34 85 -22 15 -73 8 -91 -12z"/>
<path d="M2364 595 c-8 -19 3 -35 25 -35 20 0 41 19 41 37 0 18 -59 17 -66 -2z"/>
<path d="M2936 658 c-21 -30 -20 -61 2 -81 23 -21 36 -21 56 -1 31 31 11 104
-29 104 -8 0 -21 -10 -29 -22z"/>
<path d="M3672 598 c-15 -15 3 -38 29 -38 16 0 39 26 39 44 0 11 -56 6 -68 -6z"/>
<path d="M4000 664 c-18 -21 -17 -72 3 -91 13 -14 21 -14 42 -5 21 10 25 18
25 51 0 30 -5 43 -19 51 -27 14 -36 13 -51 -6z"/>
<path d="M4351 601 c-18 -12 -7 -41 17 -41 21 0 42 18 42 37 0 15 -38 17 -59
4z"/>
<path d="M5291 601 c-18 -12 -7 -41 17 -41 21 0 42 18 42 37 0 15 -38 17 -59
4z"/>
<path d="M13045 18120 c-112 -36 -175 -115 -175 -218 0 -120 53 -172 237 -231
71 -23 139 -49 151 -57 30 -21 30 -77 0 -98 -51 -36 -191 -8 -300 59 -33 21
-61 35 -62 34 -2 -2 -20 -37 -40 -77 -43 -86 -47 -79 69 -137 176 -88 384 -83
495 12 110 94 106 254 -8 340 -26 19 -79 43 -130 59 -130 39 -178 62 -191 91
-9 21 -9 30 4 49 13 21 23 24 75 24 58 0 203 -43 236 -71 10 -8 21 6 53 70
l41 81 -25 16 c-102 67 -312 93 -430 54z"/>
<path d="M3100 18127 c0 -2 -76 -180 -169 -395 l-169 -392 106 0 107 0 26 68
26 67 173 0 174 0 26 -65 26 -65 107 -3 c59 -1 107 1 107 5 0 4 -73 182 -162
395 l-163 388 -107 0 c-60 0 -108 -1 -108 -3z m206 -484 c-2 -2 -51 -2 -109
-1 l-105 3 47 120 c27 66 51 129 55 140 6 15 21 -14 61 -120 30 -76 53 -141
51 -142z"/>
<path d="M3720 17736 l0 -396 100 0 100 0 0 110 0 110 104 0 c140 0 218 24
279 85 54 54 77 115 77 204 0 91 -15 136 -61 186 -77 83 -101 89 -366 93
l-233 4 0 -396z m422 210 c54 -35 62 -140 14 -185 -31 -29 -77 -41 -163 -41
l-73 0 0 126 0 126 98 -4 c72 -3 104 -8 124 -22z"/>
<path d="M4480 17736 l0 -396 105 0 105 0 0 110 0 110 78 0 77 0 58 -110 58
-110 115 0 116 0 -23 38 c-13 20 -49 77 -80 126 l-57 89 53 51 c41 40 57 63
69 105 45 153 -6 286 -132 348 l-57 28 -242 3 -243 4 0 -396z m424 220 c47
-20 66 -51 66 -112 0 -95 -47 -124 -197 -124 l-83 0 0 125 0 125 90 0 c55 0
104 -6 124 -14z"/>
<path d="M5300 17735 l0 -395 315 0 315 0 0 80 0 80 -215 0 -215 0 0 75 0 75
190 0 190 0 0 85 0 85 -190 0 -190 0 0 75 0 75 210 0 210 0 0 80 0 80 -310 0
-310 0 0 -395z"/>
<path d="M6060 17735 l0 -395 95 0 95 0 0 235 c0 129 3 235 8 235 4 -1 85
-106 180 -235 l173 -235 95 0 94 0 0 395 0 395 -100 0 -100 0 -2 -235 -3 -236
-175 235 -175 236 -92 0 -93 0 0 -395z"/>
<path d="M6950 17735 l0 -395 209 0 c180 0 218 3 272 20 184 57 289 210 276
404 -11 176 -118 306 -291 352 -35 10 -115 14 -258 14 l-208 0 0 -395z m447
199 c114 -71 139 -251 51 -359 -46 -55 -80 -68 -195 -73 l-103 -5 0 238 0 238
100 -5 c88 -4 105 -8 147 -34z"/>
<path d="M7810 17735 l0 -395 320 0 320 0 0 80 0 80 -215 0 -215 0 0 75 0 75
188 2 187 3 0 80 0 80 -187 3 -188 2 0 75 0 75 210 0 210 0 0 80 0 80 -315 0
-315 0 0 -395z"/>
<path d="M8840 17735 l0 -395 95 0 95 0 2 237 3 236 175 -236 175 -236 93 -1
92 0 0 395 0 395 -95 0 -95 0 0 -242 0 -241 -181 241 -181 242 -89 0 -89 0 0
-395z"/>
<path d="M9720 17735 l0 -395 320 0 320 0 0 80 0 80 -215 0 -215 0 0 75 0 75
185 0 185 0 0 85 0 85 -185 0 -185 0 0 75 0 75 204 0 204 0 4 80 3 80 -312 0
-313 0 0 -395z"/>
<path d="M10561 17936 l131 -194 -107 -153 c-60 -85 -124 -175 -142 -201 l-35
-48 121 0 121 0 80 120 c44 66 84 120 88 120 4 0 42 -54 86 -120 l79 -120 124
0 124 0 -63 93 c-198 285 -219 318 -212 329 4 7 61 90 126 185 65 94 118 174
118 177 0 3 -53 6 -117 6 l-118 0 -69 -106 c-38 -57 -72 -107 -76 -109 -4 -3
-40 45 -80 105 l-73 110 -119 0 -119 0 132 -194z"/>
<path d="M11240 18050 l0 -79 118 -3 117 -3 3 -312 2 -313 100 0 100 0 0 315
0 315 120 0 120 0 0 80 0 80 -340 0 -340 0 0 -80z"/>
<path d="M12260 18050 l0 -80 135 0 135 0 0 -210 c0 -197 -1 -211 -20 -230
-38 -38 -117 -23 -196 37 l-32 24 -47 -67 -46 -67 26 -28 c15 -15 55 -42 89
-60 123 -66 290 -47 370 41 60 67 66 106 66 432 l0 288 -240 0 -240 0 0 -80z"/>
<path d="M13800 18050 l0 -80 70 0 70 0 0 -315 0 -315 105 0 105 0 0 395 0
395 -175 0 -175 0 0 -80z"/>
<path d="M14413 17894 l-123 -236 0 -74 0 -74 185 0 185 0 0 -85 0 -85 95 0
95 0 0 85 0 85 55 0 55 0 0 80 0 80 -55 0 -55 0 0 85 0 85 -95 0 -95 0 0 -85
0 -85 -81 0 -81 0 116 226 c64 125 116 228 116 230 0 2 -44 4 -97 4 l-98 0
-122 -236z"/>
<path d="M11995 17495 c-36 -35 -35 -106 1 -140 36 -34 93 -34 131 -1 23 20
28 32 28 71 0 39 -5 51 -28 71 -39 33 -99 33 -132 -1z"/>
<path d="M6933 16406 c-122 -39 -187 -135 -162 -245 20 -91 66 -125 245 -180
109 -33 127 -46 127 -88 0 -42 -28 -55 -108 -51 -71 4 -138 28 -212 78 l-32
21 -36 -71 c-20 -40 -35 -73 -33 -75 24 -22 115 -69 167 -87 51 -18 89 -23
167 -23 92 0 105 2 159 30 32 17 72 47 89 68 26 33 31 48 34 107 7 125 -42
177 -224 236 -127 41 -164 68 -146 108 6 14 23 28 39 32 36 9 129 -10 204 -43
33 -14 61 -24 63 -22 8 9 66 129 66 137 0 12 -104 58 -160 71 -62 14 -196 12
-247 -3z"/>
<path d="M9310 16340 l0 -80 105 0 105 0 0 -285 0 -285 95 0 95 0 0 285 0 285
110 0 109 0 3 67 3 66 128 -236 127 -236 0 -115 0 -116 95 0 95 0 0 116 0 117
91 171 c51 94 109 204 131 244 l40 72 -95 0 -95 0 -77 -142 c-43 -79 -81 -147
-85 -151 -4 -5 -45 59 -90 141 l-83 149 -141 6 c-78 4 -259 7 -403 7 l-263 0
0 -80z"/>
<path d="M11110 16411 c-172 -56 -233 -221 -126 -338 26 -29 54 -42 159 -77
139 -46 167 -63 167 -100 0 -41 -25 -56 -90 -56 -67 0 -142 25 -213 69 l-46
30 -36 -67 c-19 -37 -33 -72 -31 -79 3 -6 42 -30 88 -52 244 -121 510 -49 526
143 10 124 -48 186 -225 241 -116 37 -153 59 -153 94 0 27 38 51 80 51 29 0
151 -37 212 -64 14 -6 24 6 52 63 l36 71 -24 15 c-62 41 -130 58 -241 61 -60
2 -121 0 -135 -5z"/>
<path d="M11547 16413 c-4 -3 -7 -39 -7 -80 l0 -73 110 0 110 0 0 -285 0 -285
95 0 95 0 0 285 0 285 105 0 105 0 0 80 0 80 -303 0 c-167 0 -307 -3 -310 -7z"/>
<path d="M14377 16410 c-219 -56 -336 -278 -260 -493 26 -73 108 -158 191
-199 63 -31 73 -33 177 -33 99 0 116 3 168 27 213 100 290 357 162 543 -72
105 -171 156 -309 161 -50 2 -108 -1 -129 -6z m180 -161 c143 -54 167 -272 41
-372 -65 -52 -170 -47 -239 10 -90 76 -94 239 -7 320 51 48 141 66 205 42z"/>
<path d="M5760 16406 c0 -3 59 -113 130 -244 l130 -240 0 -116 0 -116 95 0 95
0 0 116 0 117 91 171 c51 94 109 204 131 244 l40 72 -95 0 -95 0 -77 -142
c-43 -79 -81 -147 -85 -151 -4 -5 -45 59 -91 142 l-84 151 -92 0 c-51 0 -93
-2 -93 -4z"/>
<path d="M7655 16377 c-7 -18 -71 -165 -141 -327 -70 -162 -133 -310 -141
-327 l-13 -33 98 0 98 0 24 65 24 65 157 0 157 0 24 -62 24 -63 103 -3 c56 -1
101 1 98 5 -2 4 -71 167 -152 361 l-149 352 -98 0 -99 0 -14 -33z m112 -405
c-49 -1 -92 0 -95 3 -3 3 16 60 43 126 l48 121 47 -123 47 -124 -90 -3z"/>
<path d="M8230 16050 l0 -360 90 0 90 0 2 216 3 216 160 -216 160 -216 82 0
83 0 0 360 0 360 -85 0 -85 0 -2 -217 -3 -216 -163 216 -162 217 -85 0 -85 0
0 -360z"/>
<path d="M9040 16050 l0 -360 95 0 95 0 0 360 0 360 -95 0 -95 0 0 -360z"/>
<path d="M12222 16163 c4 -242 4 -249 30 -303 33 -70 79 -116 148 -149 48 -23
68 -26 160 -26 130 0 187 22 255 97 69 76 75 110 75 390 l0 238 -95 0 -95 0 0
-237 c0 -218 -2 -241 -20 -270 -53 -88 -197 -83 -247 9 -16 29 -18 64 -21 266
l-3 232 -96 0 -95 0 4 -247z"/>
<path d="M13020 16050 l0 -361 213 3 212 3 67 32 c81 38 136 91 174 169 26 53
29 69 29 154 0 81 -4 103 -26 151 -37 79 -90 133 -167 171 l-66 33 -218 3
-218 3 0 -361z m398 191 c72 -37 106 -98 106 -191 0 -79 -23 -129 -78 -174
-36 -29 -44 -31 -137 -34 l-99 -4 0 211 0 211 85 0 c64 0 95 -5 123 -19z"/>
<path d="M13810 16050 l0 -360 95 0 95 0 0 360 0 360 -95 0 -95 0 0 -360z"/>
<path d="M8577 14982 c-35 -38 -13 -92 36 -92 40 0 57 15 57 50 0 52 -60 78
-93 42z"/>
<path d="M9586 14984 c-19 -18 -21 -65 -4 -82 17 -17 64 -15 82 4 21 21 20 57
-2 77 -23 21 -56 22 -76 1z"/>
<path d="M10027 14982 c-35 -38 -10 -92 42 -92 36 0 51 17 51 57 0 50 -59 72
-93 35z"/>
<path d="M5610 14895 l0 -74 -35 21 c-64 37 -147 11 -188 -61 -24 -40 -25
-136 -3 -180 35 -66 121 -95 186 -63 31 15 40 16 40 6 0 -10 15 -14 55 -14
l55 0 0 220 0 220 -55 0 -55 0 0 -75z m-20 -147 c27 -29 27 -91 0 -118 -47
-47 -115 -11 -115 62 0 69 71 103 115 56z"/>
<path d="M11720 14750 l0 -220 55 0 c40 0 55 4 55 14 0 10 9 9 40 -6 67 -34
150 -6 184 61 75 144 -51 309 -184 243 l-40 -19 0 73 0 74 -55 0 -55 0 0 -220z
m226 -1 c28 -31 25 -96 -5 -120 -33 -27 -66 -24 -90 7 -30 39 -24 102 13 126
21 15 63 8 82 -13z"/>
<path d="M14730 14750 l0 -220 55 0 55 0 0 220 0 220 -55 0 -55 0 0 -220z"/>
<path d="M3702 14929 c-176 -88 -153 -340 37 -396 69 -20 140 -6 201 38 l42
31 -32 33 -32 33 -44 -25 c-89 -50 -174 -2 -174 97 0 100 93 151 174 95 l39
-27 31 31 c37 38 31 55 -34 89 -59 30 -148 30 -208 1z"/>
<path d="M10680 14938 c0 -7 30 -102 66 -210 l66 -198 57 0 58 0 33 125 c18
69 36 128 40 130 4 3 23 -54 41 -125 l34 -130 58 0 c45 0 59 4 64 17 4 9 35
104 69 210 l62 193 -57 0 -57 0 -33 -132 c-19 -73 -37 -139 -40 -145 -4 -7
-24 52 -45 132 l-39 145 -53 0 -53 0 -12 -42 c-7 -24 -24 -90 -39 -148 l-27
-105 -16 55 c-9 30 -27 96 -40 145 l-24 90 -56 3 c-42 2 -57 -1 -57 -10z"/>
<path d="M6330 14885 c0 -38 -3 -45 -20 -45 -16 0 -20 -7 -20 -35 0 -28 4 -35
20 -35 18 0 20 -7 20 -82 0 -65 4 -90 20 -115 25 -42 79 -59 138 -44 46 13 47
14 31 58 -9 26 -15 31 -42 29 l-32 -1 -3 78 -3 77 46 0 c46 0 46 0 43 33 -3
30 -6 32 -45 35 l-43 3 0 45 0 44 -55 0 -55 0 0 -45z"/>
<path d="M9770 14886 c0 -42 -2 -46 -25 -46 -22 0 -25 -4 -25 -35 0 -31 3 -35
25 -35 25 0 25 -1 25 -85 0 -99 11 -128 55 -150 39 -18 61 -19 104 -4 31 11
36 24 25 66 -5 18 -13 22 -38 20 l-31 -2 -3 78 -3 77 41 0 c39 0 40 1 40 35 0
34 -1 35 -39 35 -40 0 -40 0 -43 43 l-3 42 -52 3 -53 3 0 -45z"/>
<path d="M4190 14853 c-8 -3 -25 -15 -37 -26 l-23 -20 0 21 c0 20 -5 22 -55
22 l-55 0 0 -160 0 -160 55 0 55 0 0 94 c0 90 1 96 26 115 15 12 37 21 50 21
22 0 24 4 24 50 0 50 -5 56 -40 43z"/>
<path d="M4340 14838 c-63 -32 -90 -77 -90 -148 0 -67 25 -112 80 -144 50 -29
132 -28 188 4 23 13 42 27 42 30 0 3 -12 18 -27 32 -25 24 -30 25 -47 12 -28
-20 -89 -18 -109 4 -10 10 -17 22 -17 25 0 4 50 7 111 7 l112 0 -5 51 c-12
119 -131 183 -238 127z m120 -78 c32 -32 24 -40 -40 -40 -64 0 -73 9 -43 42
21 24 58 23 83 -2z"/>
<path d="M4697 14846 c-65 -18 -72 -27 -53 -64 l15 -29 51 13 c55 14 93 7 103
-20 5 -13 -2 -16 -36 -16 -107 -1 -167 -39 -167 -105 0 -80 94 -128 173 -87
29 16 37 17 37 6 0 -10 14 -14 50 -14 l50 0 0 120 c0 143 -10 170 -70 194 -48
19 -87 19 -153 2z m123 -194 c0 -4 -7 -18 -16 -30 -18 -26 -81 -31 -90 -7 -13
32 4 45 56 45 27 0 50 -3 50 -8z"/>
<path d="M5145 14844 c-16 -8 -33 -21 -37 -27 -5 -8 -8 -4 -8 11 0 20 -5 22
-55 22 l-55 0 0 -160 0 -160 55 0 55 0 0 93 c0 111 14 140 63 135 44 -4 57
-35 57 -140 l0 -88 50 0 50 0 0 123 c0 138 -8 163 -60 189 -43 22 -76 23 -115
2z"/>
<path d="M5886 14846 c-137 -51 -151 -236 -23 -303 44 -22 133 -22 180 1 107
52 115 222 13 285 -45 28 -120 35 -170 17z m111 -98 c49 -46 19 -138 -45 -138
-40 0 -67 33 -67 82 0 69 64 101 112 56z"/>
<path d="M7258 14842 c-30 -16 -38 -17 -38 -6 0 10 -15 14 -55 14 l-55 0 2
-217 3 -218 53 -3 52 -3 0 76 0 75 26 -17 c37 -24 117 -22 151 3 54 41 68 70
68 144 0 54 -4 75 -21 96 -51 68 -122 90 -186 56z m68 -80 c39 -26 44 -93 9
-127 -29 -30 -55 -32 -86 -6 -30 24 -33 89 -5 120 19 21 61 28 82 13z"/>
<path d="M7667 14841 c-29 -15 -37 -16 -37 -5 0 10 -15 14 -55 14 l-55 0 0
-160 0 -160 55 0 55 0 0 93 c0 50 4 97 8 103 11 16 48 34 71 34 18 0 21 6 21
50 0 57 -6 60 -63 31z"/>
<path d="M7857 14846 c-75 -28 -107 -76 -107 -159 0 -101 66 -161 176 -161
110 0 174 63 174 172 0 115 -126 192 -243 148z m113 -96 c45 -45 14 -140 -45
-140 -38 0 -65 33 -65 80 0 47 27 80 65 80 14 0 34 -9 45 -20z"/>
<path d="M8298 14842 c-30 -16 -38 -17 -38 -6 0 10 -15 14 -55 14 l-55 0 2
-217 3 -218 53 -3 52 -3 0 76 0 75 26 -17 c37 -24 117 -22 151 3 54 41 68 70
68 144 0 54 -4 75 -21 96 -51 68 -122 90 -186 56z m68 -80 c39 -26 44 -93 9
-127 -29 -30 -55 -32 -86 -6 -30 24 -33 89 -5 120 19 21 61 28 82 13z"/>
<path d="M8838 14851 c-104 -34 -149 -150 -95 -245 57 -101 229 -110 299 -15
57 77 34 193 -50 242 -35 21 -116 30 -154 18z m102 -99 c29 -23 32 -93 5 -122
-42 -47 -115 -10 -115 58 0 70 60 104 110 64z"/>
<path d="M9314 14846 c-40 -18 -64 -52 -64 -92 0 -45 28 -74 96 -98 37 -13 60
-27 62 -38 5 -25 -49 -24 -104 1 l-41 19 -16 -34 c-16 -33 -16 -34 6 -48 95
-61 243 -31 262 54 13 58 -27 97 -130 128 -16 5 -31 16 -33 25 -4 22 44 23 93
3 34 -15 35 -15 50 14 22 43 20 48 -37 65 -63 18 -103 19 -144 1z"/>
<path d="M10285 14847 c-56 -22 -73 -37 -95 -83 -86 -176 150 -327 291 -185
43 43 59 107 40 163 -29 88 -146 140 -236 105z m114 -103 c12 -15 21 -39 21
-54 0 -40 -35 -80 -70 -80 -35 0 -70 40 -70 80 0 40 35 80 70 80 19 0 36 -9
49 -26z"/>
<path d="M11445 14849 c-75 -21 -125 -116 -106 -200 27 -121 195 -167 294 -81
17 15 16 17 -9 43 -25 26 -29 27 -48 14 -40 -29 -126 -11 -126 26 0 5 49 9
110 9 l110 0 0 29 c0 121 -104 196 -225 160z m99 -85 c32 -32 20 -44 -44 -44
-60 0 -61 0 -49 23 7 12 17 25 23 29 19 13 54 9 70 -8z"/>
<path d="M12415 14845 c-19 -10 -31 -12 -33 -6 -2 6 -28 11 -58 11 l-54 0 0
-221 0 -220 53 3 52 3 3 74 c3 73 3 73 23 55 27 -24 104 -24 147 1 48 29 76
93 70 161 -9 111 -117 185 -203 139z m75 -95 c43 -43 11 -140 -47 -140 -55 0
-87 97 -46 142 21 24 68 23 93 -2z"/>
<path d="M12740 14838 c-63 -32 -90 -77 -90 -148 0 -67 25 -112 80 -144 50
-29 132 -28 188 4 23 13 42 27 42 30 0 3 -12 18 -27 32 -25 24 -30 25 -47 12
-28 -20 -89 -18 -109 4 -10 10 -17 22 -17 25 0 4 50 7 111 7 l112 0 -5 51
c-12 119 -131 183 -238 127z m120 -78 c32 -32 24 -40 -40 -40 -64 0 -73 9 -43
42 21 24 58 23 83 -2z"/>
<path d="M13200 14853 c-8 -3 -25 -15 -37 -26 l-23 -20 0 21 c0 20 -5 22 -55
22 l-55 0 0 -160 0 -160 55 0 55 0 0 94 c0 90 1 96 26 115 15 12 37 21 50 21
22 0 24 4 24 50 0 50 -5 56 -40 43z"/>
<path d="M13344 14849 c-42 -12 -65 -40 -71 -86 -7 -51 15 -77 92 -106 70 -27
87 -57 33 -57 -19 0 -51 9 -71 19 l-37 19 -15 -28 c-21 -41 -20 -45 26 -65 82
-38 196 -19 224 36 34 65 4 120 -78 144 -64 19 -82 29 -73 44 10 15 50 14 92
-4 34 -14 35 -14 54 18 19 30 19 33 3 45 -40 29 -119 39 -179 21z"/>
<path d="M13676 14846 c-137 -51 -151 -236 -23 -303 44 -22 133 -22 180 1 107
52 115 222 13 285 -45 28 -120 35 -170 17z m111 -98 c49 -46 19 -138 -45 -138
-40 0 -67 33 -67 82 0 69 64 101 112 56z"/>
<path d="M14125 14844 c-16 -8 -33 -21 -37 -27 -5 -8 -8 -4 -8 11 0 20 -5 22
-55 22 l-55 0 0 -160 0 -160 55 0 55 0 0 93 c0 111 14 140 63 135 44 -4 57
-35 57 -140 l0 -88 50 0 50 0 0 123 c0 138 -8 163 -60 189 -43 22 -76 23 -115
2z"/>
<path d="M14428 14844 c-57 -17 -62 -24 -46 -61 7 -15 12 -29 13 -30 0 -1 22
4 50 11 55 14 98 8 103 -16 2 -12 -11 -16 -62 -21 -104 -10 -135 -34 -136
-105 0 -34 6 -48 26 -67 36 -33 86 -41 135 -22 21 8 39 11 39 6 0 -5 25 -9 55
-9 l55 0 0 124 c0 111 -2 126 -22 151 -42 53 -118 68 -210 39z m122 -204 c0
-35 -84 -57 -96 -25 -12 31 4 45 51 45 38 0 45 -3 45 -20z"/>
<path d="M6570 14730 c0 -141 11 -173 67 -197 43 -17 90 -11 127 18 l26 20 0
-20 c0 -18 6 -21 50 -21 l50 0 0 160 0 160 -50 0 -50 0 0 -72 c0 -101 -14
-146 -47 -154 -50 -13 -58 3 -61 120 l-3 106 -54 0 -55 0 0 -120z"/>
<path d="M8560 14690 l0 -160 55 0 55 0 0 160 0 160 -55 0 -55 0 0 -160z"/>
<path d="M9570 14690 l0 -160 55 0 55 0 0 160 0 160 -55 0 -55 0 0 -160z"/>
<path d="M10010 14690 l0 -160 55 0 55 0 0 160 0 160 -55 0 -55 0 0 -160z"/>
<path d="M10257 13513 c-4 -3 -7 -34 -7 -68 l0 -62 -39 19 c-33 16 -45 18 -79
8 -59 -15 -92 -59 -92 -121 0 -56 19 -100 52 -123 29 -20 107 -21 136 0 20 14
22 14 22 0 0 -11 10 -16 30 -16 l30 0 0 185 0 185 -23 0 c-13 0 -27 -3 -30 -7z
m-27 -173 c13 -13 20 -33 20 -60 0 -51 -27 -80 -75 -80 -48 0 -75 29 -75 80 0
51 27 80 75 80 22 0 43 -8 55 -20z"/>
<path d="M12875 13500 c-7 -23 10 -50 30 -50 20 0 37 27 30 50 -4 13 -15 20
-30 20 -15 0 -26 -7 -30 -20z"/>
<path d="M13020 13336 l0 -186 30 0 30 0 -2 183 -3 182 -27 3 -28 3 0 -185z"/>
<path d="M13163 13504 c-8 -20 8 -48 30 -52 22 -5 42 35 26 54 -16 19 -48 18
-56 -2z"/>
<path d="M14380 13451 c0 -39 -3 -71 -7 -71 -3 0 -15 8 -25 17 -22 19 -93 22
-126 4 -80 -43 -80 -195 -1 -236 36 -19 100 -19 125 0 25 19 34 19 34 0 0 -10
10 -15 30 -15 l30 0 -2 183 -3 182 -27 3 -28 3 0 -70z m-25 -111 c27 -29 24
-99 -5 -122 -30 -25 -78 -23 -107 4 -30 28 -31 85 -3 116 27 29 90 30 115 2z"/>
<path d="M8636 13428 c-19 -40 -55 -119 -79 -175 l-46 -103 33 0 c29 0 35 5
49 40 l15 40 85 0 84 0 18 -40 c15 -33 23 -40 47 -40 16 0 28 5 27 13 0 6 -33
84 -72 172 -66 147 -74 160 -100 163 -26 3 -30 -2 -61 -70z m114 -135 c0 -9
-18 -13 -60 -13 -67 0 -66 -8 -20 95 l23 50 28 -60 c15 -33 28 -66 29 -72z"/>
<path d="M10820 13326 l0 -176 30 0 c29 0 30 1 30 50 l0 50 48 0 c47 0 48 -1
77 -50 26 -44 33 -50 63 -50 36 0 37 -2 -10 67 l-28 42 29 29 c38 38 49 93 28
138 -26 54 -56 67 -168 72 l-99 5 0 -177z m200 94 c11 -11 20 -31 20 -45 0
-44 -32 -65 -100 -65 l-60 0 0 65 0 65 60 0 c47 0 64 -4 80 -20z"/>
<path d="M12040 13441 c0 -34 -3 -41 -20 -41 -13 0 -20 -7 -20 -20 0 -13 7
-20 20 -20 18 0 20 -7 20 -85 0 -101 15 -125 78 -125 47 0 63 10 56 37 -4 16
-13 20 -37 19 l-32 -1 -3 78 -3 77 36 0 c28 0 35 4 35 20 0 16 -7 20 -34 20
-33 0 -35 2 -38 38 -3 32 -7 37 -30 40 -27 3 -28 1 -28 -37z"/>
<path d="M12690 13444 c0 -27 -5 -37 -20 -41 -11 -3 -20 -14 -20 -24 0 -12 7
-19 20 -19 18 0 20 -7 20 -88 0 -102 12 -122 71 -122 43 0 62 12 57 36 -2 15
-10 18 -34 16 -37 -4 -44 11 -44 101 l0 57 40 0 c33 0 40 3 40 19 0 16 -8 20
-37 23 -36 3 -38 5 -41 41 -3 32 -7 37 -28 37 -21 0 -24 -5 -24 -36z"/>
<path d="M9037 13409 c-16 -4 -35 -13 -43 -20 -11 -9 -14 -8 -14 5 0 11 -9 16
-30 16 l-30 0 0 -181 0 -180 28 3 c26 3 27 6 30 66 3 62 3 62 25 47 12 -8 43
-15 69 -15 39 0 54 6 80 29 31 28 33 33 33 100 0 63 -3 73 -26 96 -30 31 -82
45 -122 34z m78 -72 c22 -31 19 -93 -5 -117 -46 -46 -130 -9 -130 56 0 47 9
65 42 79 38 15 75 8 93 -18z"/>
<path d="M9373 13412 c-13 -4 -32 -15 -43 -24 -19 -17 -20 -17 -20 2 0 16 -7
20 -30 20 l-30 0 0 -130 0 -130 30 0 30 0 0 78 c0 88 13 117 60 127 25 5 30
11 30 36 0 16 -1 29 -2 28 -2 -1 -13 -4 -25 -7z"/>
<path d="M9520 13410 c-38 -9 -86 -56 -96 -95 -11 -43 6 -97 41 -132 29 -29
40 -33 84 -33 50 0 111 21 111 39 0 5 -7 14 -15 21 -12 10 -19 10 -27 2 -7 -7
-31 -12 -54 -12 -34 0 -47 5 -64 28 l-22 27 101 3 101 3 0 32 c0 36 -30 91
-57 105 -31 16 -67 20 -103 12z m77 -55 c11 -8 23 -24 26 -35 5 -19 1 -20 -69
-20 -41 0 -74 3 -74 6 0 16 24 46 43 54 32 13 50 12 74 -5z"/>
<path d="M9857 13410 c-16 -5 -35 -14 -43 -21 -11 -9 -14 -8 -14 5 0 11 -9 16
-30 16 l-30 0 0 -130 0 -130 30 0 30 0 0 85 c0 94 16 125 65 125 49 0 65 -31
65 -125 l0 -85 30 0 30 0 0 100 c0 95 -1 101 -27 129 -32 33 -65 43 -106 31z"/>
<path d="M10472 13410 c-106 -24 -133 -177 -43 -237 44 -30 113 -31 160 -2 32
19 33 22 17 37 -13 14 -20 14 -36 4 -30 -18 -94 -15 -113 6 -33 36 -22 42 78
42 l95 0 0 29 c0 91 -65 142 -158 121z m83 -65 c39 -38 32 -45 -50 -45 -73 0
-74 0 -66 23 9 24 45 47 74 47 10 0 29 -11 42 -25z"/>
<path d="M11249 13410 c-69 -20 -99 -60 -99 -130 0 -53 23 -96 62 -116 64 -33
204 4 164 44 -10 11 -18 11 -34 3 -33 -18 -90 -13 -112 9 -35 35 -24 40 75 40
l95 0 0 35 c0 85 -70 138 -151 115z m64 -51 c25 -14 37 -28 37 -46 0 -9 -21
-13 -70 -13 -79 0 -90 13 -44 49 30 24 46 26 77 10z"/>
<path d="M11535 13413 c-67 -15 -89 -35 -64 -60 8 -8 20 -7 45 3 45 19 60 18
84 -6 31 -31 24 -40 -29 -40 -59 0 -108 -16 -121 -40 -31 -58 11 -120 82 -120
24 0 54 7 66 16 20 14 22 14 22 0 0 -11 10 -16 30 -16 l30 0 -1 88 c-1 48 -4
98 -8 111 -12 43 -82 77 -136 64z m85 -166 c0 -17 -28 -43 -57 -51 -32 -10
-63 10 -63 39 0 24 3 25 60 25 44 0 60 -4 60 -13z"/>
<path d="M11822 13410 c-106 -24 -133 -177 -43 -237 44 -30 113 -31 160 -2 32
19 32 21 16 39 -16 17 -20 18 -38 5 -30 -21 -80 -19 -108 4 -30 24 -33 89 -5
120 21 23 74 28 107 10 20 -10 49 2 49 22 0 27 -84 51 -138 39z"/>
<path d="M13626 13408 c-52 -11 -68 -25 -56 -48 9 -17 12 -17 53 -2 41 15 46
15 71 -1 44 -29 34 -47 -26 -47 -63 0 -99 -16 -116 -52 -14 -30 -3 -73 26 -94
21 -16 96 -18 123 -4 13 7 19 7 19 0 0 -5 14 -10 30 -10 l30 0 0 94 c0 102 -9
140 -37 154 -30 16 -76 20 -117 10z m92 -170 c-6 -43 -100 -61 -115 -22 -12
32 5 44 62 44 53 0 56 -1 53 -22z"/>
<path d="M13977 13410 c-16 -5 -35 -14 -43 -21 -11 -9 -14 -8 -14 5 0 11 -9
16 -30 16 l-30 0 0 -130 0 -130 30 0 30 0 0 85 c0 94 16 125 65 125 49 0 65
-31 65 -125 l0 -85 30 0 30 0 0 100 c0 95 -1 101 -27 129 -32 33 -65 43 -106
31z"/>
<path d="M14592 13410 c-106 -24 -133 -177 -43 -237 38 -26 110 -31 151 -10
36 18 70 74 70 116 0 90 -85 152 -178 131z m97 -76 c43 -54 11 -134 -54 -134
-50 0 -80 29 -80 78 0 54 26 82 76 82 29 0 42 -6 58 -26z"/>
<path d="M12350 13306 c0 -96 2 -105 25 -130 31 -34 99 -37 139 -5 l26 20 0
-20 c0 -17 6 -21 30 -21 l30 0 0 130 0 130 -30 0 -30 0 0 -70 c0 -43 -6 -82
-15 -99 -18 -36 -59 -47 -91 -26 -22 14 -24 22 -24 105 l0 90 -30 0 -30 0 0
-104z"/>
<path d="M12880 13280 l0 -130 25 0 25 0 0 130 0 130 -25 0 -25 0 0 -130z"/>
<path d="M13160 13280 l0 -130 30 0 30 0 0 130 0 130 -30 0 -30 0 0 -130z"/>
<path d="M13290 13385 c0 -24 2 -25 65 -25 36 0 65 -2 65 -5 0 -3 -31 -43 -70
-88 -98 -115 -97 -117 45 -117 l115 0 0 25 c0 24 -2 25 -76 25 l-75 0 75 89
c42 49 76 97 76 105 0 14 -16 16 -110 16 l-110 0 0 -25z"/>
<path d="M10671 12816 c-15 -18 -8 -44 14 -52 21 -9 47 15 43 40 -4 26 -40 33
-57 12z"/>
<path d="M13767 12824 c-13 -13 -7 -52 8 -58 27 -10 46 5 43 33 -3 26 -35 41
-51 25z"/>
<path d="M9410 12635 l0 -175 30 0 29 0 3 121 3 121 89 -121 c78 -106 92 -121
117 -121 l29 0 0 176 0 175 -27 -3 -28 -3 -3 -119 -3 -119 -90 122 c-80 106
-95 121 -120 121 l-29 0 0 -175z"/>
<path d="M11137 12803 c-4 -3 -7 -17 -7 -30 0 -20 5 -23 35 -23 l35 0 0 -145
0 -145 30 0 30 0 0 175 0 175 -58 0 c-32 0 -62 -3 -65 -7z"/>
<path d="M11391 12698 c-34 -61 -61 -122 -61 -135 0 -22 3 -23 85 -23 l85 0 0
-40 c0 -36 3 -40 25 -40 23 0 25 4 25 40 0 36 3 40 25 40 21 0 25 5 25 30 0
25 -4 30 -25 30 -22 0 -25 4 -25 40 0 36 -2 40 -25 40 -22 0 -25 -4 -25 -40
l0 -40 -51 0 -51 0 51 95 c28 53 51 100 51 105 0 6 -11 10 -24 10 -21 0 -34
-17 -85 -112z"/>
<path d="M11850 12780 c0 -30 0 -30 55 -30 l55 0 0 -145 0 -145 30 0 30 0 0
145 0 145 56 0 c54 0 55 0 52 28 l-3 27 -137 3 -138 3 0 -31z"/>
<path d="M10377 12784 c-4 -4 -7 -22 -7 -41 0 -26 -4 -33 -20 -33 -13 0 -20
-7 -20 -20 0 -13 7 -20 20 -20 18 0 20 -7 20 -85 0 -101 15 -125 78 -125 48 0
66 12 58 38 -5 15 -15 20 -39 18 l-32 -1 -3 78 -3 77 41 0 c33 0 40 3 40 20 0
17 -7 20 -39 20 -39 0 -40 1 -43 38 -2 28 -8 38 -23 40 -12 2 -24 0 -28 -4z"/>
<path d="M14250 12754 c0 -27 -5 -37 -20 -41 -11 -3 -20 -14 -20 -24 0 -12 7
-19 20 -19 18 0 20 -7 20 -88 0 -102 12 -122 71 -122 43 0 62 12 57 36 -2 15
-10 18 -34 16 -37 -4 -44 11 -44 101 l0 57 40 0 c33 0 40 3 40 19 0 16 -8 20
-37 23 -36 3 -38 5 -41 41 -3 32 -7 37 -28 37 -21 0 -24 -5 -24 -36z"/>
<path d="M9872 12720 c-106 -24 -133 -177 -43 -237 44 -30 113 -31 160 -2 32
19 33 22 17 37 -13 14 -20 14 -36 4 -30 -18 -94 -15 -113 6 -33 36 -22 42 78
42 l95 0 0 29 c0 91 -65 142 -158 121z m83 -65 c39 -38 32 -45 -50 -45 -73 0
-74 0 -66 23 9 24 45 47 74 47 10 0 29 -11 42 -25z"/>
<path d="M10840 12713 c-72 -37 -59 -111 24 -140 66 -22 82 -44 47 -63 -15 -7
-32 -6 -67 6 -39 13 -48 13 -55 2 -14 -21 -11 -27 21 -43 67 -34 163 -10 175
45 10 44 -14 73 -77 96 -56 20 -74 48 -38 59 11 3 37 1 56 -5 30 -10 38 -10
45 1 13 20 11 27 -9 38 -38 20 -86 22 -122 4z"/>
<path d="M12555 12722 c-11 -2 -28 -11 -37 -20 -16 -14 -18 -14 -18 1 0 12 -9
17 -30 17 l-30 0 0 -181 0 -180 28 3 c26 3 27 6 30 66 3 62 3 62 25 47 49 -34
144 -10 172 45 31 60 9 162 -42 188 -25 13 -74 20 -98 14z m85 -82 c30 -56 -8
-130 -66 -130 -46 0 -74 29 -74 78 0 45 22 79 53 84 32 5 76 -11 87 -32z"/>
<path d="M12842 12720 c-106 -24 -133 -177 -43 -237 44 -30 113 -31 160 -2 32
19 33 22 17 37 -13 14 -20 14 -36 4 -30 -18 -94 -15 -113 6 -33 36 -22 42 78
42 l95 0 0 29 c0 91 -65 142 -158 121z m83 -65 c39 -38 32 -45 -50 -45 -73 0
-74 0 -66 23 9 24 45 47 74 47 10 0 29 -11 42 -25z"/>
<path d="M13105 12723 c-33 -8 -65 -44 -65 -75 0 -36 28 -64 78 -78 22 -5 46
-17 53 -26 11 -14 10 -18 -6 -30 -23 -17 -29 -17 -80 1 -38 14 -54 9 -55 -17
0 -15 61 -38 102 -38 72 0 115 46 96 101 -9 27 -23 36 -91 63 -72 29 -25 68
50 43 30 -11 53 27 26 41 -24 13 -84 21 -108 15z"/>
<path d="M13363 12720 c-60 -13 -93 -60 -93 -130 0 -89 54 -135 146 -128 33 3
62 12 74 23 19 17 19 20 4 36 -15 16 -19 17 -37 4 -12 -8 -36 -15 -54 -15 -46
0 -73 30 -73 80 0 69 56 99 126 68 23 -11 28 -10 40 7 13 17 11 21 -13 36 -36
21 -79 28 -120 19z"/>
<path d="M14025 12722 c-10 -2 -29 -11 -42 -19 -21 -14 -23 -14 -23 1 0 11 -9
16 -30 16 l-30 0 2 -177 3 -178 28 -3 27 -3 0 71 0 71 26 -20 c54 -43 149 -19
179 45 28 60 10 146 -38 177 -26 16 -74 26 -102 19z m75 -80 c60 -76 -36 -174
-111 -113 -46 37 -23 134 35 143 34 6 55 -3 76 -30z"/>
<path d="M10099 12662 c23 -32 41 -62 41 -67 0 -5 -18 -35 -40 -66 -22 -32
-40 -60 -40 -63 0 -3 13 -6 30 -6 23 0 35 9 60 45 17 25 33 45 35 45 2 0 16
-20 32 -45 24 -39 33 -45 62 -45 l33 0 -17 28 c-10 15 -29 43 -42 62 -12 19
-23 39 -23 45 0 6 16 34 35 62 19 29 35 55 35 58 0 3 -13 5 -30 5 -24 0 -35
-8 -56 -40 -15 -22 -28 -40 -30 -40 -2 0 -16 18 -30 40 -23 34 -32 40 -61 40
l-34 0 40 -58z"/>
<path d="M10670 12576 c0 -153 -5 -171 -47 -160 -16 4 -23 0 -28 -16 -14 -44
56 -55 102 -16 l28 24 3 156 4 156 -31 0 -31 0 0 -144z"/>
<path d="M12130 12716 c0 -2 23 -57 50 -122 28 -65 50 -126 50 -135 0 -25 -26
-42 -55 -36 -19 3 -29 -1 -37 -16 -24 -45 61 -64 106 -24 16 14 47 78 86 175
33 84 60 154 60 157 0 12 -60 4 -61 -7 0 -7 -15 -50 -33 -96 l-32 -84 -38 96
c-36 91 -39 96 -67 96 -16 0 -29 -2 -29 -4z"/>
<path d="M13570 12590 l0 -130 30 0 30 0 0 84 c0 79 2 86 26 105 15 12 35 21
45 21 14 0 19 7 19 25 0 19 -5 25 -23 25 -12 0 -33 -7 -45 -16 -20 -14 -22
-14 -22 0 0 11 -10 16 -30 16 l-30 0 0 -130z"/>
<path d="M13760 12590 l0 -130 30 0 30 0 0 130 0 130 -30 0 -30 0 0 -130z"/>
<path d="M14576 12590 c46 -108 53 -133 44 -151 -9 -15 -19 -20 -42 -17 -23 2
-34 -3 -45 -19 -14 -21 -14 -23 12 -33 35 -13 51 -13 84 5 29 14 36 30 142
298 l19 48 -31 -3 c-30 -3 -33 -7 -63 -90 -17 -49 -34 -88 -37 -88 -4 0 -22
41 -40 90 -32 87 -34 90 -65 90 l-32 0 54 -130z"/>
<path d="M10546 12504 c-10 -25 -7 -33 13 -44 15 -7 23 -6 35 6 12 12 13 20 6
35 -13 23 -46 25 -54 3z"/>
<path d="M11645 12509 c-4 -6 -8 -28 -9 -50 -1 -49 19 -49 47 -1 15 26 17 35
7 47 -15 18 -36 19 -45 4z"/>
<path d="M9003 12134 c-8 -20 8 -48 30 -52 22 -5 42 35 26 54 -16 19 -48 18
-56 -2z"/>
<path d="M9150 11966 l0 -186 30 0 30 0 -2 183 -3 182 -27 3 -28 3 0 -185z"/>
<path d="M9731 12136 c-9 -11 -10 -20 -1 -36 13 -24 38 -23 53 1 23 37 -25 68
-52 35z"/>
<path d="M10390 12081 c0 -39 -3 -71 -7 -71 -3 0 -15 8 -25 17 -22 19 -93 22
-126 4 -80 -43 -80 -195 -1 -236 36 -19 100 -19 125 0 25 19 34 19 34 0 0 -10
10 -15 30 -15 l30 0 -2 183 -3 182 -27 3 -28 3 0 -70z m-25 -111 c27 -29 24
-99 -5 -122 -30 -25 -78 -23 -107 4 -30 28 -31 85 -3 116 27 29 90 30 115 2z"/>
<path d="M13310 12081 l0 -68 -39 19 c-132 65 -244 -130 -130 -226 36 -31 111
-36 147 -10 20 14 22 14 22 0 0 -11 10 -16 30 -16 l30 0 0 185 0 185 -30 0
-30 0 0 -69z m-20 -113 c26 -28 26 -78 -1 -112 -16 -20 -29 -26 -58 -26 -49 0
-76 28 -76 80 0 52 27 80 76 80 26 0 45 -7 59 -22z"/>
<path d="M8390 12100 c0 -30 1 -30 55 -30 l55 0 0 -145 0 -145 30 0 30 0 0
145 0 145 55 0 c54 0 55 0 55 30 l0 30 -140 0 -140 0 0 -30z"/>
<path d="M10753 12119 c-73 -21 -133 -119 -119 -194 9 -44 44 -94 85 -122 44
-30 126 -31 181 -3 49 25 54 33 32 53 -17 15 -21 15 -59 -4 -53 -26 -103 -18
-143 23 -25 25 -30 37 -30 80 0 44 4 54 34 84 28 28 42 34 76 34 25 0 56 -8
75 -20 l33 -20 15 24 c15 23 15 25 -6 38 -55 36 -113 45 -174 27z"/>
<path d="M11053 12115 c-45 -19 -67 -57 -59 -100 8 -41 44 -69 113 -86 74 -19
94 -68 37 -89 -29 -12 -87 0 -119 24 -27 21 -30 20 -43 -8 -13 -28 -5 -37 51
-61 72 -30 172 -12 197 34 14 27 13 84 -2 104 -7 10 -44 30 -82 45 -39 16 -74
36 -80 44 -25 41 58 65 114 33 34 -19 35 -19 49 12 14 30 8 37 -49 53 -47 13
-89 12 -127 -5z"/>
<path d="M11364 12116 c-61 -27 -82 -90 -45 -137 11 -14 48 -35 85 -48 73 -26
93 -47 72 -77 -19 -26 -84 -23 -132 5 -20 12 -38 21 -39 19 -17 -21 -23 -47
-12 -56 74 -59 213 -55 247 7 5 11 10 35 10 54 0 44 -28 70 -110 99 -56 20
-65 27 -68 50 -3 23 2 29 24 34 25 6 73 -2 115 -20 21 -9 44 38 26 52 -40 31
-123 40 -173 18z"/>
<path d="M8785 12043 c-29 -6 -75 -25 -75 -30 0 -2 4 -13 10 -23 9 -17 12 -17
53 -2 41 15 46 15 71 -1 45 -30 33 -44 -40 -49 -58 -4 -70 -8 -90 -32 -51 -59
-12 -126 74 -126 26 0 54 6 61 13 11 10 14 10 18 0 3 -7 18 -13 34 -13 l29 0
0 100 c0 95 -1 101 -27 129 -28 29 -77 43 -118 34z m85 -162 c0 -40 -62 -71
-100 -51 -19 10 -27 40 -13 53 10 11 113 8 113 -2z"/>
<path d="M9987 12040 c-16 -5 -35 -14 -43 -21 -11 -9 -14 -8 -14 5 0 11 -9 16
-30 16 l-30 0 0 -130 0 -130 30 0 30 0 0 83 c0 74 3 86 23 105 28 27 68 28 90
4 13 -14 17 -39 17 -105 l0 -87 30 0 30 0 0 94 c0 52 -4 106 -10 120 -15 39
-72 61 -123 46z"/>
<path d="M11813 12040 c-60 -13 -93 -60 -93 -130 0 -89 54 -135 146 -128 33 3
62 12 74 23 19 17 19 20 4 36 -15 16 -19 17 -37 4 -12 -8 -36 -15 -54 -15 -46
0 -73 30 -73 80 0 69 56 99 126 68 23 -11 28 -10 40 7 13 17 11 21 -13 36 -36
21 -79 28 -120 19z"/>
<path d="M12295 12040 c-75 -17 -111 -69 -102 -146 4 -39 12 -55 41 -81 31
-28 43 -33 87 -33 47 0 109 23 109 41 0 18 -29 30 -49 20 -47 -26 -131 0 -131
39 0 6 40 10 101 10 l102 0 -7 41 c-8 52 -21 75 -49 93 -30 19 -66 25 -102 16z
m83 -67 c26 -35 15 -43 -58 -43 -79 0 -90 13 -43 50 32 25 79 21 101 -7z"/>
<path d="M12575 12043 c-29 -6 -75 -25 -75 -30 0 -2 4 -13 10 -23 9 -17 12
-17 53 -2 41 15 46 15 71 -1 45 -30 33 -44 -40 -49 -58 -4 -70 -8 -90 -32 -51
-59 -12 -126 74 -126 26 0 54 6 61 13 11 10 14 10 18 0 3 -7 18 -13 34 -13
l29 0 0 100 c0 95 -1 101 -27 129 -28 29 -77 43 -118 34z m85 -162 c0 -40 -62
-71 -100 -51 -19 10 -27 40 -13 53 10 11 113 8 113 -2z"/>
<path d="M12905 12039 c-16 -5 -36 -16 -42 -26 -12 -15 -13 -15 -13 5 0 18 -6
22 -30 22 l-30 0 0 -130 0 -130 30 0 30 0 0 80 c0 73 3 83 25 105 28 28 66 32
89 9 12 -12 16 -37 16 -105 l0 -89 30 0 30 0 0 105 c0 99 -2 107 -25 130 -13
14 -31 25 -39 25 -8 0 -20 2 -28 4 -7 2 -26 0 -43 -5z"/>
<path d="M13535 12040 c-74 -16 -111 -69 -102 -146 4 -39 12 -55 41 -81 31
-29 43 -33 88 -33 88 0 137 46 138 128 0 50 -21 97 -52 113 -34 18 -80 26
-113 19z m85 -70 c13 -13 20 -33 20 -60 0 -51 -27 -80 -75 -80 -46 0 -75 32
-75 82 0 49 28 78 75 78 22 0 43 -8 55 -20z"/>
<path d="M14325 12039 c-16 -5 -36 -16 -42 -26 -12 -15 -13 -15 -13 5 0 18 -6
22 -30 22 l-30 0 0 -130 0 -130 30 0 30 0 0 80 c0 73 3 83 25 105 28 28 66 32
89 9 12 -12 16 -37 16 -105 l0 -89 30 0 30 0 0 105 c0 99 -2 107 -25 130 -13
14 -31 25 -39 25 -8 0 -20 2 -28 4 -7 2 -26 0 -43 -5z"/>
<path d="M14615 12043 c-36 -8 -75 -25 -75 -33 0 -33 11 -37 53 -22 51 17 97
5 97 -28 0 -17 -6 -20 -50 -20 -55 0 -104 -20 -114 -45 -14 -37 -6 -74 20 -94
30 -23 92 -28 127 -10 16 9 22 9 25 0 2 -6 15 -11 28 -11 24 0 24 1 24 103 0
118 -10 140 -68 157 -20 5 -39 9 -42 9 -3 -1 -14 -3 -25 -6z m73 -175 c-6 -47
-100 -60 -113 -17 -10 31 3 39 61 39 52 0 55 -2 52 -22z"/>
<path d="M9000 11910 l0 -130 30 0 30 0 0 130 0 130 -30 0 -30 0 0 -130z"/>
<path d="M9252 12028 c3 -7 24 -66 48 -130 43 -117 43 -118 75 -118 31 0 32 2
60 90 16 49 31 87 34 85 4 -2 20 -42 36 -89 29 -83 31 -86 60 -86 31 0 32 2
76 121 24 67 46 126 47 130 2 5 -10 9 -26 9 -29 0 -31 -3 -62 -96 -18 -52 -34
-93 -37 -90 -3 2 -17 44 -32 93 l-27 88 -34 0 c-34 0 -34 -1 -60 -80 -14 -44
-28 -87 -31 -95 -3 -8 -20 29 -38 83 -32 94 -34 97 -63 97 -20 0 -29 -4 -26
-12z"/>
<path d="M9730 11910 l0 -130 30 0 30 0 0 130 0 130 -30 0 -30 0 0 -130z"/>
<path d="M12020 11910 l0 -130 30 0 30 0 0 84 c0 79 2 86 26 105 15 12 35 21
45 21 14 0 19 7 19 25 0 19 -5 25 -23 25 -12 0 -33 -7 -45 -16 -20 -14 -22
-14 -22 0 0 11 -10 16 -30 16 l-30 0 0 -130z"/>
<path d="M13880 11941 c0 -92 2 -102 26 -130 21 -26 33 -31 69 -31 28 0 51 7
69 21 l26 20 0 -20 c0 -17 6 -21 30 -21 l30 0 0 130 0 130 -30 0 -30 0 0 -80
c0 -73 -3 -83 -25 -105 -28 -29 -51 -31 -83 -9 -20 14 -22 23 -22 105 l0 89
-30 0 -30 0 0 -99z"/>
<path d="M9340 11286 l0 -186 30 0 30 0 -2 183 -3 182 -27 3 -28 3 0 -185z"/>
<path d="M9481 11456 c-9 -11 -10 -20 -1 -36 13 -24 38 -23 53 1 23 37 -25 68
-52 35z"/>
<path d="M10463 11454 c-8 -20 8 -48 30 -52 22 -5 42 35 26 54 -16 19 -48 18
-56 -2z"/>
<path d="M10711 11441 c-12 -16 -21 -32 -21 -35 0 -14 44 -4 72 16 29 20 30
22 12 35 -27 20 -40 16 -63 -16z"/>
<path d="M12170 11286 l0 -186 30 0 c20 0 30 5 30 16 0 14 2 14 22 0 13 -9 43
-16 70 -16 38 0 54 6 80 29 27 24 32 36 35 87 4 65 -8 96 -48 126 -32 24 -100
26 -134 4 l-24 -16 -3 68 c-3 65 -4 67 -30 70 l-28 3 0 -185z m195 1 c22 -31
19 -93 -5 -117 -46 -46 -130 -9 -130 56 0 47 9 65 42 79 38 15 75 8 93 -18z"/>
<path d="M13587 11463 c-4 -3 -7 -34 -7 -68 l0 -62 -39 19 c-33 16 -45 18 -79
8 -59 -15 -92 -59 -92 -121 0 -56 19 -100 52 -123 29 -20 107 -21 136 0 20 14
22 14 22 0 0 -11 10 -16 30 -16 l30 0 0 185 0 185 -23 0 c-13 0 -27 -3 -30 -7z
m-27 -173 c13 -13 20 -33 20 -60 0 -51 -27 -80 -75 -80 -48 0 -75 29 -75 80 0
51 27 80 75 80 22 0 43 -8 55 -20z"/>
<path d="M11330 11437 c0 -7 24 -84 53 -172 l54 -160 33 0 34 0 38 124 c21 69
40 126 41 128 2 1 20 -56 42 -127 l38 -130 31 0 31 0 58 168 c31 92 57 170 57
175 0 4 -13 7 -29 7 -24 0 -31 -6 -40 -32 -5 -18 -24 -80 -42 -138 -17 -58
-34 -98 -37 -90 -3 8 -22 69 -42 135 -35 118 -36 120 -65 120 -29 0 -30 -2
-65 -120 -20 -66 -39 -127 -42 -135 -3 -8 -20 32 -37 90 -18 58 -37 120 -42
138 -9 26 -16 32 -40 32 -17 0 -29 -5 -29 -13z"/>
<path d="M12630 11275 l0 -175 30 0 30 0 1 123 0 122 55 -108 c40 -80 59 -107
71 -105 10 2 39 47 69 108 l53 105 0 -122 1 -123 30 0 30 0 0 175 0 175 -35 0
c-35 0 -36 -1 -92 -115 l-58 -115 -57 115 c-58 114 -59 115 -93 115 l-35 0 0
-175z"/>
<path d="M8785 11363 c-67 -15 -89 -35 -64 -60 8 -8 20 -7 45 3 45 19 60 18
84 -6 31 -31 24 -40 -29 -40 -59 0 -108 -16 -121 -40 -31 -58 11 -120 82 -120
24 0 54 7 66 16 20 14 22 14 22 0 0 -11 10 -16 30 -16 l30 0 -1 88 c-1 48 -4
98 -8 111 -12 43 -82 77 -136 64z m85 -166 c0 -17 -28 -43 -57 -51 -32 -10
-63 10 -63 39 0 24 3 25 60 25 44 0 60 -4 60 -13z"/>
<path d="M9117 11360 c-16 -5 -35 -14 -43 -21 -11 -9 -14 -8 -14 5 0 11 -9 16
-30 16 l-30 0 0 -180 0 -180 30 0 30 0 0 66 0 66 25 -16 c13 -9 44 -16 69 -16
84 0 140 81 116 169 -10 39 -59 91 -85 91 -7 0 -19 2 -27 4 -7 2 -26 0 -41 -4z
m75 -67 c25 -22 32 -67 14 -101 -26 -51 -91 -59 -125 -16 -64 81 34 183 111
117z"/>
<path d="M9692 11360 c-106 -24 -133 -177 -43 -237 44 -30 113 -31 160 -2 32
19 32 21 16 39 -16 17 -20 18 -38 5 -30 -21 -80 -19 -108 4 -30 24 -33 89 -5
120 21 23 74 28 107 10 20 -10 49 2 49 22 0 27 -84 51 -138 39z"/>
<path d="M9956 11358 c-52 -11 -68 -25 -56 -48 9 -17 12 -17 53 -2 41 15 46
15 71 -1 44 -29 34 -47 -26 -47 -63 0 -99 -16 -116 -52 -14 -30 -3 -73 26 -94
21 -16 96 -18 123 -4 13 7 19 7 19 0 0 -5 14 -10 30 -10 l30 0 0 94 c0 102 -9
140 -37 154 -30 16 -76 20 -117 10z m92 -170 c-6 -43 -100 -61 -115 -22 -12
32 5 44 62 44 53 0 56 -1 53 -22z"/>
<path d="M10260 11359 c-38 -8 -86 -55 -96 -94 -11 -43 6 -97 41 -132 29 -29
40 -33 84 -33 81 0 135 37 98 68 -8 7 -18 6 -31 -4 -34 -24 -91 -18 -115 12
-43 55 -11 134 55 134 20 0 44 -5 55 -11 20 -10 49 2 49 22 0 28 -84 51 -140
38z"/>
<path d="M10685 11360 c-74 -16 -111 -69 -102 -146 4 -39 12 -55 41 -81 31
-29 43 -33 88 -33 88 0 137 46 138 128 0 50 -21 97 -52 113 -34 18 -80 26
-113 19z m85 -70 c13 -13 20 -33 20 -60 0 -51 -27 -80 -75 -80 -46 0 -75 32
-75 82 0 49 28 78 75 78 22 0 43 -8 55 -20z"/>
<path d="M11025 11359 c-16 -5 -36 -16 -42 -26 -12 -15 -13 -15 -13 5 0 18 -6
22 -30 22 l-30 0 0 -130 0 -130 30 0 30 0 0 80 c0 73 3 83 25 105 28 28 66 32
89 9 12 -12 16 -37 16 -105 l0 -89 30 0 30 0 0 105 c0 99 -2 107 -25 130 -13
14 -31 25 -39 25 -8 0 -20 2 -28 4 -7 2 -26 0 -43 -5z"/>
<path d="M11950 11360 c-38 -9 -86 -56 -96 -95 -11 -43 6 -97 41 -132 29 -29
40 -33 84 -33 50 0 111 21 111 39 0 5 -7 14 -15 21 -12 10 -19 10 -27 2 -7 -7
-31 -12 -54 -12 -34 0 -47 5 -64 28 l-22 27 101 3 101 3 0 32 c0 36 -30 91
-57 105 -31 16 -67 20 -103 12z m77 -55 c11 -8 23 -24 26 -35 5 -19 1 -20 -69
-20 -41 0 -74 3 -74 6 0 16 24 46 43 54 32 13 50 12 74 -5z"/>
<path d="M13165 11360 c-74 -16 -111 -69 -102 -146 4 -39 12 -55 41 -81 31
-29 43 -33 88 -33 88 0 137 46 138 128 0 50 -21 97 -52 113 -34 18 -80 26
-113 19z m85 -70 c13 -13 20 -33 20 -60 0 -51 -27 -80 -75 -80 -46 0 -75 32
-75 82 0 49 28 78 75 78 22 0 43 -8 55 -20z"/>
<path d="M13800 11360 c-38 -9 -86 -56 -96 -95 -11 -43 6 -97 41 -132 29 -29
40 -33 84 -33 50 0 111 21 111 39 0 5 -7 14 -15 21 -12 10 -19 10 -27 2 -7 -7
-31 -12 -54 -12 -34 0 -47 5 -64 28 l-22 27 101 3 101 3 0 32 c0 36 -30 91
-57 105 -31 16 -67 20 -103 12z m77 -55 c11 -8 23 -24 26 -35 5 -19 1 -20 -69
-20 -41 0 -74 3 -74 6 0 16 24 46 43 54 32 13 50 12 74 -5z"/>
<path d="M14116 11351 c-28 -15 -36 -16 -36 -5 0 9 -11 14 -30 14 l-30 0 0
-130 0 -130 30 0 30 0 0 84 c0 79 2 86 26 105 15 12 35 21 45 21 13 0 19 7 19
24 0 35 -12 38 -54 17z"/>
<path d="M14325 11359 c-16 -5 -36 -16 -42 -26 -12 -15 -13 -15 -13 5 0 18 -6
22 -30 22 l-30 0 0 -130 0 -130 30 0 30 0 0 80 c0 73 3 83 25 105 28 28 66 32
89 9 12 -12 16 -37 16 -105 l0 -89 30 0 30 0 0 105 c0 99 -2 107 -25 130 -13
14 -31 25 -39 25 -8 0 -20 2 -28 4 -7 2 -26 0 -43 -5z"/>
<path d="M14615 11363 c-36 -8 -75 -25 -75 -33 0 -33 11 -37 53 -22 51 17 97
5 97 -28 0 -17 -6 -20 -50 -20 -55 0 -104 -20 -114 -45 -14 -37 -6 -74 20 -94
30 -23 92 -28 127 -10 16 9 22 9 25 0 2 -6 15 -11 28 -11 24 0 24 1 24 103 0
118 -10 140 -68 157 -20 5 -39 9 -42 9 -3 -1 -14 -3 -25 -6z m73 -175 c-6 -47
-100 -60 -113 -17 -10 31 3 39 61 39 52 0 55 -2 52 -22z"/>
<path d="M9480 11230 l0 -130 30 0 30 0 0 130 0 130 -30 0 -30 0 0 -130z"/>
<path d="M10460 11230 l0 -130 30 0 30 0 0 130 0 130 -30 0 -30 0 0 -130z"/>
<path d="M13479 9893 c-119 -153 -264 -345 -324 -428 -59 -82 -116 -160 -126
-173 -17 -22 -17 -21 -163 183 -136 190 -149 205 -177 205 -23 0 -30 -4 -25
-15 3 -8 73 -110 157 -227 137 -192 150 -214 139 -232 -7 -12 -81 -115 -165
-231 -83 -115 -155 -216 -159 -222 -5 -10 2 -13 27 -13 34 0 39 6 189 214 84
118 156 215 159 215 3 1 75 -96 159 -214 147 -205 156 -215 187 -215 18 0 33
3 33 8 -1 4 -77 112 -169 241 l-169 235 53 75 c59 85 582 848 591 862 3 5 3 9
1 9 -2 0 -100 -125 -218 -277z"/>
<path d="M11210 9210 l0 -470 30 0 30 0 2 425 3 425 280 -412 c233 -343 638
-906 678 -943 17 -16 -4 16 -491 748 -461 691 -466 697 -499 697 l-33 0 0
-470z"/>
<path d="M11987 9673 c-4 -3 -7 -215 -7 -470 l0 -463 315 0 315 0 0 30 0 30
-285 0 -285 0 0 200 0 200 266 0 265 0 -3 28 -3 27 -262 3 -263 2 0 180 0 180
280 0 280 0 0 30 0 30 -303 0 c-167 0 -307 -3 -310 -7z"/>
<path d="M13414 9665 c-4 -8 -4 -22 0 -30 4 -12 32 -15 166 -15 l160 0 0 -440
0 -440 30 0 30 0 0 440 0 440 160 0 160 0 0 30 0 30 -350 0 c-302 0 -351 -2
-356 -15z"/>
<path d="M14267 9014 c-4 -4 -7 -43 -7 -86 0 -85 -14 -106 -49 -74 -21 19 -41
21 -41 4 0 -22 14 -36 44 -48 23 -8 34 -7 52 5 27 18 36 57 32 139 -3 55 -14
77 -31 60z"/>
<path d="M14362 9004 c-26 -18 -30 -65 -6 -85 9 -8 33 -19 53 -24 49 -14 51
-49 3 -53 -22 -2 -34 2 -38 12 -7 17 -44 22 -44 6 0 -24 41 -50 78 -50 55 0
74 17 70 65 -3 36 -6 39 -52 55 -56 18 -67 33 -36 50 17 9 26 8 45 -4 30 -20
45 -20 45 -2 0 20 -39 46 -70 46 -14 0 -36 -7 -48 -16z"/>
<path d="M14095 8840 c-4 -7 -3 -16 3 -22 14 -14 45 -2 40 15 -6 16 -34 21
-43 7z"/>
<path d="M13120 7385 l0 -685 685 0 685 0 0 685 0 685 -685 0 -685 0 0 -685z
m1147 40 c28 -14 59 -38 69 -52 17 -26 16 -27 -11 -49 -58 -46 -70 -48 -98
-20 -50 50 -132 19 -111 -42 7 -21 30 -37 101 -72 145 -72 180 -118 171 -225
-6 -74 -41 -117 -115 -145 -46 -17 -70 -20 -118 -15 -77 8 -158 47 -192 92
-27 35 -27 36 -8 50 11 8 36 23 56 33 l36 19 33 -34 c57 -59 155 -57 175 4 11
35 -12 58 -102 101 -131 62 -173 110 -173 199 0 143 150 224 287 156z m-357
-45 l0 -60 -90 0 -90 0 0 -255 0 -255 -65 0 -65 0 0 255 0 255 -90 0 -90 0 0
60 0 60 245 0 245 0 0 -60z"/>
<path d="M7300 7425 l0 -415 1470 0 1470 0 0 415 0 415 -1470 0 -1470 0 0
-415z m493 225 c21 -14 46 -43 57 -65 l20 -40 -55 -3 c-49 -3 -58 0 -78 23
-38 45 -137 33 -156 -18 -13 -33 3 -44 87 -63 149 -33 202 -75 202 -162 0 -60
-22 -97 -77 -129 -115 -67 -290 -12 -318 100 -7 27 -7 27 45 27 45 0 56 -4 80
-30 24 -26 35 -30 79 -30 42 0 57 5 76 25 49 49 36 60 -114 97 -71 18 -92 28
-123 58 -34 34 -38 43 -38 88 0 44 5 57 32 88 46 52 80 65 169 62 61 -3 82 -8
112 -28z m432 -35 c13 -33 49 -125 79 -205 31 -80 63 -160 71 -178 25 -55 21
-62 -38 -62 l-53 0 -24 58 c-13 31 -24 59 -26 61 -1 1 -56 -24 -120 -58 -65
-34 -123 -61 -129 -61 -6 0 -26 15 -44 34 l-34 35 93 221 93 221 54 -3 54 -3
24 -60z m450 -102 l110 -167 3 167 2 167 50 0 50 0 0 -255 0 -255 -50 0 c-57
0 -45 -14 -197 212 l-88 130 -3 -171 -2 -172 -53 3 -52 3 -3 240 c-1 132 0
245 2 252 4 9 26 13 63 13 l58 0 110 -167z m415 -88 l0 -255 -55 0 -55 0 0
255 0 255 55 0 55 0 0 -255z m471 204 l27 -46 -84 -41 -84 -42 0 -165 0 -165
-55 0 -55 0 0 190 0 190 27 13 c24 11 15 13 -82 17 l-110 5 -3 33 c-6 64 -12
63 200 60 l192 -3 27 -46z m225 -58 l62 -103 25 43 c13 24 40 71 59 104 l34
60 57 3 c31 2 57 0 57 -4 0 -10 -65 -124 -126 -222 l-54 -86 0 -98 0 -98 -55
0 -55 0 0 97 0 96 -90 153 c-49 83 -90 155 -90 158 0 4 26 6 58 4 l57 -3 61
-104z"/>
<path d="M8092 7418 c-23 -56 -40 -104 -37 -106 2 -2 36 11 75 28 78 37 75 27
38 128 -11 28 -23 52 -27 52 -5 0 -27 -46 -49 -102z"/>
<path d="M7305 5520 c10 -11 20 -18 23 -15 7 6 -18 35 -31 35 -5 0 -2 -9 8
-20z"/>
<path d="M8215 4341 c-7 -12 12 -24 25 -16 11 7 4 25 -10 25 -5 0 -11 -4 -15
-9z"/>
<path d="M8120 4197 c0 -32 16 -67 30 -67 17 0 11 47 -10 71 l-19 24 -1 -28z"/>
</g>
</svg>
